<mxfile host="app.diagrams.net" modified="2023-12-07T18:29:44.169Z" agent="Mozilla/5.0 (Macintosh; Intel Mac OS X 10_15_7) AppleWebKit/537.36 (KHTML, like Gecko) Chrome/120.0.0.0 Safari/537.36" etag="GMZ6M7sdV5AU8GV6MWRj" version="22.1.7" type="device" pages="3">
  <diagram name="Page-1" id="W3A_I7B4J_MsmjudcGdo">
    <mxGraphModel dx="2084" dy="763" grid="0" gridSize="10" guides="1" tooltips="1" connect="1" arrows="1" fold="1" page="0" pageScale="1" pageWidth="850" pageHeight="1100" math="0" shadow="0">
      <root>
        <mxCell id="0" />
        <mxCell id="1" parent="0" />
        <mxCell id="nkXH8eX9LuEUv9kqtnEX-64" value="" style="fontSize=12;html=1;endArrow=ERoneToMany;startArrow=ERoneToMany;rounded=0;exitX=0;exitY=0.5;exitDx=0;exitDy=0;entryX=0.917;entryY=1.078;entryDx=0;entryDy=0;entryPerimeter=0;" edge="1" parent="1" source="nkXH8eX9LuEUv9kqtnEX-41" target="nkXH8eX9LuEUv9kqtnEX-5">
          <mxGeometry width="100" height="100" relative="1" as="geometry">
            <mxPoint x="-113" y="413" as="sourcePoint" />
            <mxPoint x="-175" y="170" as="targetPoint" />
          </mxGeometry>
        </mxCell>
        <mxCell id="nkXH8eX9LuEUv9kqtnEX-1" value="Regions" style="shape=table;startSize=30;container=1;collapsible=1;childLayout=tableLayout;fixedRows=1;rowLines=0;fontStyle=1;align=center;resizeLast=1;" vertex="1" parent="1">
          <mxGeometry x="-497" y="92" width="320" height="90" as="geometry" />
        </mxCell>
        <mxCell id="nkXH8eX9LuEUv9kqtnEX-2" value="" style="shape=tableRow;horizontal=0;startSize=0;swimlaneHead=0;swimlaneBody=0;fillColor=none;collapsible=0;dropTarget=0;points=[[0,0.5],[1,0.5]];portConstraint=eastwest;strokeColor=inherit;top=0;left=0;right=0;bottom=1;" vertex="1" parent="nkXH8eX9LuEUv9kqtnEX-1">
          <mxGeometry y="30" width="320" height="30" as="geometry" />
        </mxCell>
        <mxCell id="nkXH8eX9LuEUv9kqtnEX-3" value="PK" style="shape=partialRectangle;overflow=hidden;connectable=0;fillColor=none;strokeColor=inherit;top=0;left=0;bottom=0;right=0;fontStyle=1;" vertex="1" parent="nkXH8eX9LuEUv9kqtnEX-2">
          <mxGeometry width="30" height="30" as="geometry">
            <mxRectangle width="30" height="30" as="alternateBounds" />
          </mxGeometry>
        </mxCell>
        <mxCell id="nkXH8eX9LuEUv9kqtnEX-4" value="region_id INT , -- Unique identifier for each region" style="shape=partialRectangle;overflow=hidden;connectable=0;fillColor=none;align=left;strokeColor=inherit;top=0;left=0;bottom=0;right=0;spacingLeft=6;fontStyle=5;" vertex="1" parent="nkXH8eX9LuEUv9kqtnEX-2">
          <mxGeometry x="30" width="290" height="30" as="geometry">
            <mxRectangle width="290" height="30" as="alternateBounds" />
          </mxGeometry>
        </mxCell>
        <mxCell id="nkXH8eX9LuEUv9kqtnEX-5" value="" style="shape=tableRow;horizontal=0;startSize=0;swimlaneHead=0;swimlaneBody=0;fillColor=none;collapsible=0;dropTarget=0;points=[[0,0.5],[1,0.5]];portConstraint=eastwest;strokeColor=inherit;top=0;left=0;right=0;bottom=0;" vertex="1" parent="nkXH8eX9LuEUv9kqtnEX-1">
          <mxGeometry y="60" width="320" height="30" as="geometry" />
        </mxCell>
        <mxCell id="nkXH8eX9LuEUv9kqtnEX-6" value="" style="shape=partialRectangle;overflow=hidden;connectable=0;fillColor=none;strokeColor=inherit;top=0;left=0;bottom=0;right=0;" vertex="1" parent="nkXH8eX9LuEUv9kqtnEX-5">
          <mxGeometry width="30" height="30" as="geometry">
            <mxRectangle width="30" height="30" as="alternateBounds" />
          </mxGeometry>
        </mxCell>
        <mxCell id="nkXH8eX9LuEUv9kqtnEX-7" value="region_name VARCHAR(100) NOT NULL -- Name of the region" style="shape=partialRectangle;overflow=hidden;connectable=0;fillColor=none;align=left;strokeColor=inherit;top=0;left=0;bottom=0;right=0;spacingLeft=6;" vertex="1" parent="nkXH8eX9LuEUv9kqtnEX-5">
          <mxGeometry x="30" width="290" height="30" as="geometry">
            <mxRectangle width="290" height="30" as="alternateBounds" />
          </mxGeometry>
        </mxCell>
        <mxCell id="nkXH8eX9LuEUv9kqtnEX-8" value="Users" style="shape=table;startSize=30;container=1;collapsible=1;childLayout=tableLayout;fixedRows=1;rowLines=0;fontStyle=1;align=center;resizeLast=1;" vertex="1" parent="1">
          <mxGeometry x="394" y="165" width="320" height="150" as="geometry" />
        </mxCell>
        <mxCell id="nkXH8eX9LuEUv9kqtnEX-9" value="" style="shape=tableRow;horizontal=0;startSize=0;swimlaneHead=0;swimlaneBody=0;fillColor=none;collapsible=0;dropTarget=0;points=[[0,0.5],[1,0.5]];portConstraint=eastwest;strokeColor=inherit;top=0;left=0;right=0;bottom=1;" vertex="1" parent="nkXH8eX9LuEUv9kqtnEX-8">
          <mxGeometry y="30" width="320" height="30" as="geometry" />
        </mxCell>
        <mxCell id="nkXH8eX9LuEUv9kqtnEX-10" value="PK" style="shape=partialRectangle;overflow=hidden;connectable=0;fillColor=none;strokeColor=inherit;top=0;left=0;bottom=0;right=0;fontStyle=1;" vertex="1" parent="nkXH8eX9LuEUv9kqtnEX-9">
          <mxGeometry width="30" height="30" as="geometry">
            <mxRectangle width="30" height="30" as="alternateBounds" />
          </mxGeometry>
        </mxCell>
        <mxCell id="nkXH8eX9LuEUv9kqtnEX-11" value="user_name VARCHAR(100) NOT NULL UNIQUE, -- Name of the user (must be unique). Could use  here instead of UNIQUE and NOT NULL?" style="shape=partialRectangle;overflow=hidden;connectable=0;fillColor=none;align=left;strokeColor=inherit;top=0;left=0;bottom=0;right=0;spacingLeft=6;fontStyle=5;" vertex="1" parent="nkXH8eX9LuEUv9kqtnEX-9">
          <mxGeometry x="30" width="290" height="30" as="geometry">
            <mxRectangle width="290" height="30" as="alternateBounds" />
          </mxGeometry>
        </mxCell>
        <mxCell id="nkXH8eX9LuEUv9kqtnEX-12" value="" style="shape=tableRow;horizontal=0;startSize=0;swimlaneHead=0;swimlaneBody=0;fillColor=none;collapsible=0;dropTarget=0;points=[[0,0.5],[1,0.5]];portConstraint=eastwest;strokeColor=inherit;top=0;left=0;right=0;bottom=1;" vertex="1" parent="nkXH8eX9LuEUv9kqtnEX-8">
          <mxGeometry y="60" width="320" height="30" as="geometry" />
        </mxCell>
        <mxCell id="nkXH8eX9LuEUv9kqtnEX-13" value="PK" style="shape=partialRectangle;overflow=hidden;connectable=0;fillColor=none;strokeColor=inherit;top=0;left=0;bottom=0;right=0;fontStyle=1;" vertex="1" parent="nkXH8eX9LuEUv9kqtnEX-12">
          <mxGeometry width="30" height="30" as="geometry">
            <mxRectangle width="30" height="30" as="alternateBounds" />
          </mxGeometry>
        </mxCell>
        <mxCell id="nkXH8eX9LuEUv9kqtnEX-14" value="user_id INT , -- Unique identifier for each user" style="shape=partialRectangle;overflow=hidden;connectable=0;fillColor=none;align=left;strokeColor=inherit;top=0;left=0;bottom=0;right=0;spacingLeft=6;fontStyle=5;" vertex="1" parent="nkXH8eX9LuEUv9kqtnEX-12">
          <mxGeometry x="30" width="290" height="30" as="geometry">
            <mxRectangle width="290" height="30" as="alternateBounds" />
          </mxGeometry>
        </mxCell>
        <mxCell id="nkXH8eX9LuEUv9kqtnEX-15" value="" style="shape=tableRow;horizontal=0;startSize=0;swimlaneHead=0;swimlaneBody=0;fillColor=none;collapsible=0;dropTarget=0;points=[[0,0.5],[1,0.5]];portConstraint=eastwest;strokeColor=inherit;top=0;left=0;right=0;bottom=0;" vertex="1" parent="nkXH8eX9LuEUv9kqtnEX-8">
          <mxGeometry y="90" width="320" height="30" as="geometry" />
        </mxCell>
        <mxCell id="nkXH8eX9LuEUv9kqtnEX-16" value="" style="shape=partialRectangle;overflow=hidden;connectable=0;fillColor=none;strokeColor=inherit;top=0;left=0;bottom=0;right=0;" vertex="1" parent="nkXH8eX9LuEUv9kqtnEX-15">
          <mxGeometry width="30" height="30" as="geometry">
            <mxRectangle width="30" height="30" as="alternateBounds" />
          </mxGeometry>
        </mxCell>
        <mxCell id="nkXH8eX9LuEUv9kqtnEX-17" value="preferred_region_id INT, -- The region preferred by the user" style="shape=partialRectangle;overflow=hidden;connectable=0;fillColor=none;align=left;strokeColor=inherit;top=0;left=0;bottom=0;right=0;spacingLeft=6;" vertex="1" parent="nkXH8eX9LuEUv9kqtnEX-15">
          <mxGeometry x="30" width="290" height="30" as="geometry">
            <mxRectangle width="290" height="30" as="alternateBounds" />
          </mxGeometry>
        </mxCell>
        <mxCell id="nkXH8eX9LuEUv9kqtnEX-18" value="" style="shape=tableRow;horizontal=0;startSize=0;swimlaneHead=0;swimlaneBody=0;fillColor=none;collapsible=0;dropTarget=0;points=[[0,0.5],[1,0.5]];portConstraint=eastwest;strokeColor=inherit;top=0;left=0;right=0;bottom=0;" vertex="1" parent="nkXH8eX9LuEUv9kqtnEX-8">
          <mxGeometry y="120" width="320" height="30" as="geometry" />
        </mxCell>
        <mxCell id="nkXH8eX9LuEUv9kqtnEX-19" value="" style="shape=partialRectangle;overflow=hidden;connectable=0;fillColor=none;strokeColor=inherit;top=0;left=0;bottom=0;right=0;" vertex="1" parent="nkXH8eX9LuEUv9kqtnEX-18">
          <mxGeometry width="30" height="30" as="geometry">
            <mxRectangle width="30" height="30" as="alternateBounds" />
          </mxGeometry>
        </mxCell>
        <mxCell id="nkXH8eX9LuEUv9kqtnEX-20" value="FOREIGN KEY (preferred_region_id) REFERENCES Regions(region_id) ON DELETE SET NULL -- Foreign key constraint to ensure the preferred region exists in the Regions table" style="shape=partialRectangle;overflow=hidden;connectable=0;fillColor=none;align=left;strokeColor=inherit;top=0;left=0;bottom=0;right=0;spacingLeft=6;" vertex="1" parent="nkXH8eX9LuEUv9kqtnEX-18">
          <mxGeometry x="30" width="290" height="30" as="geometry">
            <mxRectangle width="290" height="30" as="alternateBounds" />
          </mxGeometry>
        </mxCell>
        <mxCell id="nkXH8eX9LuEUv9kqtnEX-21" value="Categories" style="shape=table;startSize=30;container=1;collapsible=1;childLayout=tableLayout;fixedRows=1;rowLines=0;fontStyle=1;align=center;resizeLast=1;" vertex="1" parent="1">
          <mxGeometry x="-497" y="540" width="320" height="90" as="geometry" />
        </mxCell>
        <mxCell id="nkXH8eX9LuEUv9kqtnEX-22" value="" style="shape=tableRow;horizontal=0;startSize=0;swimlaneHead=0;swimlaneBody=0;fillColor=none;collapsible=0;dropTarget=0;points=[[0,0.5],[1,0.5]];portConstraint=eastwest;strokeColor=inherit;top=0;left=0;right=0;bottom=1;" vertex="1" parent="nkXH8eX9LuEUv9kqtnEX-21">
          <mxGeometry y="30" width="320" height="30" as="geometry" />
        </mxCell>
        <mxCell id="nkXH8eX9LuEUv9kqtnEX-23" value="PK" style="shape=partialRectangle;overflow=hidden;connectable=0;fillColor=none;strokeColor=inherit;top=0;left=0;bottom=0;right=0;fontStyle=1;" vertex="1" parent="nkXH8eX9LuEUv9kqtnEX-22">
          <mxGeometry width="30" height="30" as="geometry">
            <mxRectangle width="30" height="30" as="alternateBounds" />
          </mxGeometry>
        </mxCell>
        <mxCell id="nkXH8eX9LuEUv9kqtnEX-24" value="category_id INT , -- Unique identifier for each category" style="shape=partialRectangle;overflow=hidden;connectable=0;fillColor=none;align=left;strokeColor=inherit;top=0;left=0;bottom=0;right=0;spacingLeft=6;fontStyle=5;" vertex="1" parent="nkXH8eX9LuEUv9kqtnEX-22">
          <mxGeometry x="30" width="290" height="30" as="geometry">
            <mxRectangle width="290" height="30" as="alternateBounds" />
          </mxGeometry>
        </mxCell>
        <mxCell id="nkXH8eX9LuEUv9kqtnEX-25" value="" style="shape=tableRow;horizontal=0;startSize=0;swimlaneHead=0;swimlaneBody=0;fillColor=none;collapsible=0;dropTarget=0;points=[[0,0.5],[1,0.5]];portConstraint=eastwest;strokeColor=inherit;top=0;left=0;right=0;bottom=0;" vertex="1" parent="nkXH8eX9LuEUv9kqtnEX-21">
          <mxGeometry y="60" width="320" height="30" as="geometry" />
        </mxCell>
        <mxCell id="nkXH8eX9LuEUv9kqtnEX-26" value="" style="shape=partialRectangle;overflow=hidden;connectable=0;fillColor=none;strokeColor=inherit;top=0;left=0;bottom=0;right=0;" vertex="1" parent="nkXH8eX9LuEUv9kqtnEX-25">
          <mxGeometry width="30" height="30" as="geometry">
            <mxRectangle width="30" height="30" as="alternateBounds" />
          </mxGeometry>
        </mxCell>
        <mxCell id="nkXH8eX9LuEUv9kqtnEX-27" value="category_name VARCHAR(100) NOT NULL -- Name of the category" style="shape=partialRectangle;overflow=hidden;connectable=0;fillColor=none;align=left;strokeColor=inherit;top=0;left=0;bottom=0;right=0;spacingLeft=6;" vertex="1" parent="nkXH8eX9LuEUv9kqtnEX-25">
          <mxGeometry x="30" width="290" height="30" as="geometry">
            <mxRectangle width="290" height="30" as="alternateBounds" />
          </mxGeometry>
        </mxCell>
        <mxCell id="nkXH8eX9LuEUv9kqtnEX-28" value="Posts" style="shape=table;startSize=30;container=1;collapsible=1;childLayout=tableLayout;fixedRows=1;rowLines=0;fontStyle=1;align=center;resizeLast=1;" vertex="1" parent="1">
          <mxGeometry x="-75" y="203" width="359.0882352941179" height="358" as="geometry" />
        </mxCell>
        <mxCell id="nkXH8eX9LuEUv9kqtnEX-29" value="" style="shape=tableRow;horizontal=0;startSize=0;swimlaneHead=0;swimlaneBody=0;fillColor=none;collapsible=0;dropTarget=0;points=[[0,0.5],[1,0.5]];portConstraint=eastwest;strokeColor=inherit;top=0;left=0;right=0;bottom=1;" vertex="1" parent="nkXH8eX9LuEUv9kqtnEX-28">
          <mxGeometry y="30" width="359.0882352941179" height="30" as="geometry" />
        </mxCell>
        <mxCell id="nkXH8eX9LuEUv9kqtnEX-30" value="PK" style="shape=partialRectangle;overflow=hidden;connectable=0;fillColor=none;strokeColor=inherit;top=0;left=0;bottom=0;right=0;fontStyle=1;" vertex="1" parent="nkXH8eX9LuEUv9kqtnEX-29">
          <mxGeometry width="30" height="30" as="geometry">
            <mxRectangle width="30" height="30" as="alternateBounds" />
          </mxGeometry>
        </mxCell>
        <mxCell id="nkXH8eX9LuEUv9kqtnEX-31" value="category_id INT, -- The category of the post" style="shape=partialRectangle;overflow=hidden;connectable=0;fillColor=none;align=left;strokeColor=inherit;top=0;left=0;bottom=0;right=0;spacingLeft=6;fontStyle=5;" vertex="1" parent="nkXH8eX9LuEUv9kqtnEX-29">
          <mxGeometry x="30" width="329.0882352941179" height="30" as="geometry">
            <mxRectangle width="329.0882352941179" height="30" as="alternateBounds" />
          </mxGeometry>
        </mxCell>
        <mxCell id="nkXH8eX9LuEUv9kqtnEX-32" value="" style="shape=tableRow;horizontal=0;startSize=0;swimlaneHead=0;swimlaneBody=0;fillColor=none;collapsible=0;dropTarget=0;points=[[0,0.5],[1,0.5]];portConstraint=eastwest;strokeColor=inherit;top=0;left=0;right=0;bottom=1;" vertex="1" parent="nkXH8eX9LuEUv9kqtnEX-28">
          <mxGeometry y="60" width="359.0882352941179" height="30" as="geometry" />
        </mxCell>
        <mxCell id="nkXH8eX9LuEUv9kqtnEX-33" value="PK" style="shape=partialRectangle;overflow=hidden;connectable=0;fillColor=none;strokeColor=inherit;top=0;left=0;bottom=0;right=0;fontStyle=1;" vertex="1" parent="nkXH8eX9LuEUv9kqtnEX-32">
          <mxGeometry width="30" height="30" as="geometry">
            <mxRectangle width="30" height="30" as="alternateBounds" />
          </mxGeometry>
        </mxCell>
        <mxCell id="nkXH8eX9LuEUv9kqtnEX-34" value="region_id INT, -- The region associated with the post" style="shape=partialRectangle;overflow=hidden;connectable=0;fillColor=none;align=left;strokeColor=inherit;top=0;left=0;bottom=0;right=0;spacingLeft=6;fontStyle=5;" vertex="1" parent="nkXH8eX9LuEUv9kqtnEX-32">
          <mxGeometry x="30" width="329.0882352941179" height="30" as="geometry">
            <mxRectangle width="329.0882352941179" height="30" as="alternateBounds" />
          </mxGeometry>
        </mxCell>
        <mxCell id="nkXH8eX9LuEUv9kqtnEX-35" value="" style="shape=tableRow;horizontal=0;startSize=0;swimlaneHead=0;swimlaneBody=0;fillColor=none;collapsible=0;dropTarget=0;points=[[0,0.5],[1,0.5]];portConstraint=eastwest;strokeColor=inherit;top=0;left=0;right=0;bottom=1;" vertex="1" parent="nkXH8eX9LuEUv9kqtnEX-28">
          <mxGeometry y="90" width="359.0882352941179" height="30" as="geometry" />
        </mxCell>
        <mxCell id="nkXH8eX9LuEUv9kqtnEX-36" value="PK" style="shape=partialRectangle;overflow=hidden;connectable=0;fillColor=none;strokeColor=inherit;top=0;left=0;bottom=0;right=0;fontStyle=1;" vertex="1" parent="nkXH8eX9LuEUv9kqtnEX-35">
          <mxGeometry width="30" height="30" as="geometry">
            <mxRectangle width="30" height="30" as="alternateBounds" />
          </mxGeometry>
        </mxCell>
        <mxCell id="nkXH8eX9LuEUv9kqtnEX-37" value="user_id INT, -- The user who created the post. Maybe this should be UNIQUE?" style="shape=partialRectangle;overflow=hidden;connectable=0;fillColor=none;align=left;strokeColor=inherit;top=0;left=0;bottom=0;right=0;spacingLeft=6;fontStyle=5;" vertex="1" parent="nkXH8eX9LuEUv9kqtnEX-35">
          <mxGeometry x="30" width="329.0882352941179" height="30" as="geometry">
            <mxRectangle width="329.0882352941179" height="30" as="alternateBounds" />
          </mxGeometry>
        </mxCell>
        <mxCell id="nkXH8eX9LuEUv9kqtnEX-38" value="" style="shape=tableRow;horizontal=0;startSize=0;swimlaneHead=0;swimlaneBody=0;fillColor=none;collapsible=0;dropTarget=0;points=[[0,0.5],[1,0.5]];portConstraint=eastwest;strokeColor=inherit;top=0;left=0;right=0;bottom=1;" vertex="1" parent="nkXH8eX9LuEUv9kqtnEX-28">
          <mxGeometry y="120" width="359.0882352941179" height="30" as="geometry" />
        </mxCell>
        <mxCell id="nkXH8eX9LuEUv9kqtnEX-39" value="PK" style="shape=partialRectangle;overflow=hidden;connectable=0;fillColor=none;strokeColor=inherit;top=0;left=0;bottom=0;right=0;fontStyle=1;" vertex="1" parent="nkXH8eX9LuEUv9kqtnEX-38">
          <mxGeometry width="30" height="30" as="geometry">
            <mxRectangle width="30" height="30" as="alternateBounds" />
          </mxGeometry>
        </mxCell>
        <mxCell id="nkXH8eX9LuEUv9kqtnEX-40" value="post_id INT , -- Unique identifier for each post" style="shape=partialRectangle;overflow=hidden;connectable=0;fillColor=none;align=left;strokeColor=inherit;top=0;left=0;bottom=0;right=0;spacingLeft=6;fontStyle=5;" vertex="1" parent="nkXH8eX9LuEUv9kqtnEX-38">
          <mxGeometry x="30" width="329.0882352941179" height="30" as="geometry">
            <mxRectangle width="329.0882352941179" height="30" as="alternateBounds" />
          </mxGeometry>
        </mxCell>
        <mxCell id="nkXH8eX9LuEUv9kqtnEX-41" value="" style="shape=tableRow;horizontal=0;startSize=0;swimlaneHead=0;swimlaneBody=0;fillColor=none;collapsible=0;dropTarget=0;points=[[0,0.5],[1,0.5]];portConstraint=eastwest;strokeColor=inherit;top=0;left=0;right=0;bottom=0;" vertex="1" parent="nkXH8eX9LuEUv9kqtnEX-28">
          <mxGeometry y="150" width="359.0882352941179" height="30" as="geometry" />
        </mxCell>
        <mxCell id="nkXH8eX9LuEUv9kqtnEX-42" value="" style="shape=partialRectangle;overflow=hidden;connectable=0;fillColor=none;strokeColor=inherit;top=0;left=0;bottom=0;right=0;" vertex="1" parent="nkXH8eX9LuEUv9kqtnEX-41">
          <mxGeometry width="30" height="30" as="geometry">
            <mxRectangle width="30" height="30" as="alternateBounds" />
          </mxGeometry>
        </mxCell>
        <mxCell id="nkXH8eX9LuEUv9kqtnEX-43" value="title VARCHAR(100) NOT NULL, -- Title of the post" style="shape=partialRectangle;overflow=hidden;connectable=0;fillColor=none;align=left;strokeColor=inherit;top=0;left=0;bottom=0;right=0;spacingLeft=6;" vertex="1" parent="nkXH8eX9LuEUv9kqtnEX-41">
          <mxGeometry x="30" width="329.0882352941179" height="30" as="geometry">
            <mxRectangle width="329.0882352941179" height="30" as="alternateBounds" />
          </mxGeometry>
        </mxCell>
        <mxCell id="nkXH8eX9LuEUv9kqtnEX-44" value="" style="shape=tableRow;horizontal=0;startSize=0;swimlaneHead=0;swimlaneBody=0;fillColor=none;collapsible=0;dropTarget=0;points=[[0,0.5],[1,0.5]];portConstraint=eastwest;strokeColor=inherit;top=0;left=0;right=0;bottom=0;" vertex="1" parent="nkXH8eX9LuEUv9kqtnEX-28">
          <mxGeometry y="180" width="359.0882352941179" height="28" as="geometry" />
        </mxCell>
        <mxCell id="nkXH8eX9LuEUv9kqtnEX-45" value="" style="shape=partialRectangle;overflow=hidden;connectable=0;fillColor=none;strokeColor=inherit;top=0;left=0;bottom=0;right=0;" vertex="1" parent="nkXH8eX9LuEUv9kqtnEX-44">
          <mxGeometry width="30" height="28" as="geometry">
            <mxRectangle width="30" height="28" as="alternateBounds" />
          </mxGeometry>
        </mxCell>
        <mxCell id="nkXH8eX9LuEUv9kqtnEX-46" value="text TEXT NOT NULL, -- Text content of the post" style="shape=partialRectangle;overflow=hidden;connectable=0;fillColor=none;align=left;strokeColor=inherit;top=0;left=0;bottom=0;right=0;spacingLeft=6;" vertex="1" parent="nkXH8eX9LuEUv9kqtnEX-44">
          <mxGeometry x="30" width="329.0882352941179" height="28" as="geometry">
            <mxRectangle width="329.0882352941179" height="28" as="alternateBounds" />
          </mxGeometry>
        </mxCell>
        <mxCell id="nkXH8eX9LuEUv9kqtnEX-47" value="" style="shape=tableRow;horizontal=0;startSize=0;swimlaneHead=0;swimlaneBody=0;fillColor=none;collapsible=0;dropTarget=0;points=[[0,0.5],[1,0.5]];portConstraint=eastwest;strokeColor=inherit;top=0;left=0;right=0;bottom=0;" vertex="1" parent="nkXH8eX9LuEUv9kqtnEX-28">
          <mxGeometry y="208" width="359.0882352941179" height="30" as="geometry" />
        </mxCell>
        <mxCell id="nkXH8eX9LuEUv9kqtnEX-48" value="" style="shape=partialRectangle;overflow=hidden;connectable=0;fillColor=none;strokeColor=inherit;top=0;left=0;bottom=0;right=0;" vertex="1" parent="nkXH8eX9LuEUv9kqtnEX-47">
          <mxGeometry width="30" height="30" as="geometry">
            <mxRectangle width="30" height="30" as="alternateBounds" />
          </mxGeometry>
        </mxCell>
        <mxCell id="nkXH8eX9LuEUv9kqtnEX-49" value="location VARCHAR(100) NOT NULL, -- Location of the post" style="shape=partialRectangle;overflow=hidden;connectable=0;fillColor=none;align=left;strokeColor=inherit;top=0;left=0;bottom=0;right=0;spacingLeft=6;" vertex="1" parent="nkXH8eX9LuEUv9kqtnEX-47">
          <mxGeometry x="30" width="329.0882352941179" height="30" as="geometry">
            <mxRectangle width="329.0882352941179" height="30" as="alternateBounds" />
          </mxGeometry>
        </mxCell>
        <mxCell id="nkXH8eX9LuEUv9kqtnEX-65" value="" style="shape=tableRow;horizontal=0;startSize=0;swimlaneHead=0;swimlaneBody=0;fillColor=none;collapsible=0;dropTarget=0;points=[[0,0.5],[1,0.5]];portConstraint=eastwest;strokeColor=inherit;top=0;left=0;right=0;bottom=0;" vertex="1" parent="nkXH8eX9LuEUv9kqtnEX-28">
          <mxGeometry y="238" width="359.0882352941179" height="30" as="geometry" />
        </mxCell>
        <mxCell id="nkXH8eX9LuEUv9kqtnEX-66" value="" style="shape=partialRectangle;overflow=hidden;connectable=0;fillColor=none;strokeColor=inherit;top=0;left=0;bottom=0;right=0;" vertex="1" parent="nkXH8eX9LuEUv9kqtnEX-65">
          <mxGeometry width="30" height="30" as="geometry">
            <mxRectangle width="30" height="30" as="alternateBounds" />
          </mxGeometry>
        </mxCell>
        <mxCell id="nkXH8eX9LuEUv9kqtnEX-67" value="FOREIGN KEY (user_id) REFERENCES Users(user_id) ON DELETE SET NULL, -- Foreign key constraint to ensure the user exists in the Users table" style="shape=partialRectangle;overflow=hidden;connectable=0;fillColor=none;align=left;strokeColor=inherit;top=0;left=0;bottom=0;right=0;spacingLeft=6;" vertex="1" parent="nkXH8eX9LuEUv9kqtnEX-65">
          <mxGeometry x="30" width="329.0882352941179" height="30" as="geometry">
            <mxRectangle width="329.0882352941179" height="30" as="alternateBounds" />
          </mxGeometry>
        </mxCell>
        <mxCell id="nkXH8eX9LuEUv9kqtnEX-50" value="" style="shape=tableRow;horizontal=0;startSize=0;swimlaneHead=0;swimlaneBody=0;fillColor=none;collapsible=0;dropTarget=0;points=[[0,0.5],[1,0.5]];portConstraint=eastwest;strokeColor=inherit;top=0;left=0;right=0;bottom=0;" vertex="1" parent="nkXH8eX9LuEUv9kqtnEX-28">
          <mxGeometry y="268" width="359.0882352941179" height="30" as="geometry" />
        </mxCell>
        <mxCell id="nkXH8eX9LuEUv9kqtnEX-51" value="" style="shape=partialRectangle;overflow=hidden;connectable=0;fillColor=none;strokeColor=inherit;top=0;left=0;bottom=0;right=0;" vertex="1" parent="nkXH8eX9LuEUv9kqtnEX-50">
          <mxGeometry width="30" height="30" as="geometry">
            <mxRectangle width="30" height="30" as="alternateBounds" />
          </mxGeometry>
        </mxCell>
        <mxCell id="nkXH8eX9LuEUv9kqtnEX-52" value="FOREIGN KEY (user_id) REFERENCES Users(user_id) ON DELETE SET NULL, -- Foreign key constraint to ensure the user exists in the Users table" style="shape=partialRectangle;overflow=hidden;connectable=0;fillColor=none;align=left;strokeColor=inherit;top=0;left=0;bottom=0;right=0;spacingLeft=6;" vertex="1" parent="nkXH8eX9LuEUv9kqtnEX-50">
          <mxGeometry x="30" width="329.0882352941179" height="30" as="geometry">
            <mxRectangle width="329.0882352941179" height="30" as="alternateBounds" />
          </mxGeometry>
        </mxCell>
        <mxCell id="nkXH8eX9LuEUv9kqtnEX-53" value="" style="shape=tableRow;horizontal=0;startSize=0;swimlaneHead=0;swimlaneBody=0;fillColor=none;collapsible=0;dropTarget=0;points=[[0,0.5],[1,0.5]];portConstraint=eastwest;strokeColor=inherit;top=0;left=0;right=0;bottom=0;" vertex="1" parent="nkXH8eX9LuEUv9kqtnEX-28">
          <mxGeometry y="298" width="359.0882352941179" height="30" as="geometry" />
        </mxCell>
        <mxCell id="nkXH8eX9LuEUv9kqtnEX-54" value="" style="shape=partialRectangle;overflow=hidden;connectable=0;fillColor=none;strokeColor=inherit;top=0;left=0;bottom=0;right=0;" vertex="1" parent="nkXH8eX9LuEUv9kqtnEX-53">
          <mxGeometry width="30" height="30" as="geometry">
            <mxRectangle width="30" height="30" as="alternateBounds" />
          </mxGeometry>
        </mxCell>
        <mxCell id="nkXH8eX9LuEUv9kqtnEX-55" value="FOREIGN KEY (region_id) REFERENCES Regions(region_id) ON DELETE SET NULL, -- Foreign key constraint to ensure the region exists in the Regions table" style="shape=partialRectangle;overflow=hidden;connectable=0;fillColor=none;align=left;strokeColor=inherit;top=0;left=0;bottom=0;right=0;spacingLeft=6;" vertex="1" parent="nkXH8eX9LuEUv9kqtnEX-53">
          <mxGeometry x="30" width="329.0882352941179" height="30" as="geometry">
            <mxRectangle width="329.0882352941179" height="30" as="alternateBounds" />
          </mxGeometry>
        </mxCell>
        <mxCell id="nkXH8eX9LuEUv9kqtnEX-56" value="" style="shape=tableRow;horizontal=0;startSize=0;swimlaneHead=0;swimlaneBody=0;fillColor=none;collapsible=0;dropTarget=0;points=[[0,0.5],[1,0.5]];portConstraint=eastwest;strokeColor=inherit;top=0;left=0;right=0;bottom=0;" vertex="1" parent="nkXH8eX9LuEUv9kqtnEX-28">
          <mxGeometry y="328" width="359.0882352941179" height="30" as="geometry" />
        </mxCell>
        <mxCell id="nkXH8eX9LuEUv9kqtnEX-57" value="" style="shape=partialRectangle;overflow=hidden;connectable=0;fillColor=none;strokeColor=inherit;top=0;left=0;bottom=0;right=0;" vertex="1" parent="nkXH8eX9LuEUv9kqtnEX-56">
          <mxGeometry width="30" height="30" as="geometry">
            <mxRectangle width="30" height="30" as="alternateBounds" />
          </mxGeometry>
        </mxCell>
        <mxCell id="nkXH8eX9LuEUv9kqtnEX-58" value="FOREIGN KEY (category_id) REFERENCES Categories(category_id) ON DELETE SET NULL -- Foreign key constraint to ensure the category exists in the Categories table" style="shape=partialRectangle;overflow=hidden;connectable=0;fillColor=none;align=left;strokeColor=inherit;top=0;left=0;bottom=0;right=0;spacingLeft=6;" vertex="1" parent="nkXH8eX9LuEUv9kqtnEX-56">
          <mxGeometry x="30" width="329.0882352941179" height="30" as="geometry">
            <mxRectangle width="329.0882352941179" height="30" as="alternateBounds" />
          </mxGeometry>
        </mxCell>
        <mxCell id="nkXH8eX9LuEUv9kqtnEX-59" value="" style="edgeStyle=entityRelationEdgeStyle;fontSize=12;html=1;endArrow=ERzeroToMany;endFill=1;startArrow=ERzeroToMany;rounded=0;exitX=1;exitY=0.5;exitDx=0;exitDy=0;entryX=-0.009;entryY=-0.222;entryDx=0;entryDy=0;entryPerimeter=0;" edge="1" parent="1" source="nkXH8eX9LuEUv9kqtnEX-35" target="nkXH8eX9LuEUv9kqtnEX-15">
          <mxGeometry width="100" height="100" relative="1" as="geometry">
            <mxPoint x="890" y="257" as="sourcePoint" />
            <mxPoint x="602" y="363" as="targetPoint" />
          </mxGeometry>
        </mxCell>
        <mxCell id="nkXH8eX9LuEUv9kqtnEX-60" value="" style="edgeStyle=entityRelationEdgeStyle;fontSize=12;html=1;endArrow=ERoneToMany;startArrow=ERoneToMany;rounded=0;" edge="1" parent="1" source="nkXH8eX9LuEUv9kqtnEX-21">
          <mxGeometry width="100" height="100" relative="1" as="geometry">
            <mxPoint x="-175" y="553" as="sourcePoint" />
            <mxPoint x="-75" y="453" as="targetPoint" />
          </mxGeometry>
        </mxCell>
      </root>
    </mxGraphModel>
  </diagram>
  <diagram id="XhYYmTIWkHpcH3aiy_Yo" name="Page-2">
    <mxGraphModel dx="1778" dy="581" grid="0" gridSize="10" guides="1" tooltips="1" connect="1" arrows="1" fold="1" page="0" pageScale="1" pageWidth="850" pageHeight="1100" math="0" shadow="0">
      <root>
        <mxCell id="0" />
        <mxCell id="1" parent="0" />
        <mxCell id="JLLKguSDMvmR5vXuTiDU-1" value="Doctors" style="shape=table;startSize=30;container=1;collapsible=1;childLayout=tableLayout;fixedRows=1;rowLines=0;fontStyle=1;align=center;resizeLast=1;" vertex="1" parent="1">
          <mxGeometry x="-500" y="95" width="320" height="90" as="geometry" />
        </mxCell>
        <mxCell id="JLLKguSDMvmR5vXuTiDU-2" value="" style="shape=tableRow;horizontal=0;startSize=0;swimlaneHead=0;swimlaneBody=0;fillColor=none;collapsible=0;dropTarget=0;points=[[0,0.5],[1,0.5]];portConstraint=eastwest;strokeColor=inherit;top=0;left=0;right=0;bottom=1;" vertex="1" parent="JLLKguSDMvmR5vXuTiDU-1">
          <mxGeometry y="30" width="320" height="30" as="geometry" />
        </mxCell>
        <mxCell id="JLLKguSDMvmR5vXuTiDU-3" value="PK" style="shape=partialRectangle;overflow=hidden;connectable=0;fillColor=none;strokeColor=inherit;top=0;left=0;bottom=0;right=0;fontStyle=1;" vertex="1" parent="JLLKguSDMvmR5vXuTiDU-2">
          <mxGeometry width="30" height="30" as="geometry">
            <mxRectangle width="30" height="30" as="alternateBounds" />
          </mxGeometry>
        </mxCell>
        <mxCell id="JLLKguSDMvmR5vXuTiDU-4" value="doctor_id INT  UNIQUE, -- Unique identifier for each doctor. DOES PRIMARY KEY IMPLY UNIQUE?" style="shape=partialRectangle;overflow=hidden;connectable=0;fillColor=none;align=left;strokeColor=inherit;top=0;left=0;bottom=0;right=0;spacingLeft=6;fontStyle=5;" vertex="1" parent="JLLKguSDMvmR5vXuTiDU-2">
          <mxGeometry x="30" width="290" height="30" as="geometry">
            <mxRectangle width="290" height="30" as="alternateBounds" />
          </mxGeometry>
        </mxCell>
        <mxCell id="JLLKguSDMvmR5vXuTiDU-5" value="" style="shape=tableRow;horizontal=0;startSize=0;swimlaneHead=0;swimlaneBody=0;fillColor=none;collapsible=0;dropTarget=0;points=[[0,0.5],[1,0.5]];portConstraint=eastwest;strokeColor=inherit;top=0;left=0;right=0;bottom=0;" vertex="1" parent="JLLKguSDMvmR5vXuTiDU-1">
          <mxGeometry y="60" width="320" height="30" as="geometry" />
        </mxCell>
        <mxCell id="JLLKguSDMvmR5vXuTiDU-6" value="" style="shape=partialRectangle;overflow=hidden;connectable=0;fillColor=none;strokeColor=inherit;top=0;left=0;bottom=0;right=0;" vertex="1" parent="JLLKguSDMvmR5vXuTiDU-5">
          <mxGeometry width="30" height="30" as="geometry">
            <mxRectangle width="30" height="30" as="alternateBounds" />
          </mxGeometry>
        </mxCell>
        <mxCell id="JLLKguSDMvmR5vXuTiDU-7" value="doctor_name VARCHAR(100) NOT NULL UNIQUE -- Name of the doctor. Maybe not a good idea to have purely unique names, but this is just an example. Is there an order NOT NULL and UNIQUE have to be in? Discuss with Ben." style="shape=partialRectangle;overflow=hidden;connectable=0;fillColor=none;align=left;strokeColor=inherit;top=0;left=0;bottom=0;right=0;spacingLeft=6;" vertex="1" parent="JLLKguSDMvmR5vXuTiDU-5">
          <mxGeometry x="30" width="290" height="30" as="geometry">
            <mxRectangle width="290" height="30" as="alternateBounds" />
          </mxGeometry>
        </mxCell>
        <mxCell id="JLLKguSDMvmR5vXuTiDU-8" value="Patients" style="shape=table;startSize=30;container=1;collapsible=1;childLayout=tableLayout;fixedRows=1;rowLines=0;fontStyle=1;align=center;resizeLast=1;" vertex="1" parent="1">
          <mxGeometry x="226" y="95" width="320" height="90" as="geometry" />
        </mxCell>
        <mxCell id="JLLKguSDMvmR5vXuTiDU-9" value="" style="shape=tableRow;horizontal=0;startSize=0;swimlaneHead=0;swimlaneBody=0;fillColor=none;collapsible=0;dropTarget=0;points=[[0,0.5],[1,0.5]];portConstraint=eastwest;strokeColor=inherit;top=0;left=0;right=0;bottom=1;" vertex="1" parent="JLLKguSDMvmR5vXuTiDU-8">
          <mxGeometry y="30" width="320" height="30" as="geometry" />
        </mxCell>
        <mxCell id="JLLKguSDMvmR5vXuTiDU-10" value="PK" style="shape=partialRectangle;overflow=hidden;connectable=0;fillColor=none;strokeColor=inherit;top=0;left=0;bottom=0;right=0;fontStyle=1;" vertex="1" parent="JLLKguSDMvmR5vXuTiDU-9">
          <mxGeometry width="30" height="30" as="geometry">
            <mxRectangle width="30" height="30" as="alternateBounds" />
          </mxGeometry>
        </mxCell>
        <mxCell id="JLLKguSDMvmR5vXuTiDU-11" value="patient_id INT  UNIQUE, -- Unique identifier for each patient" style="shape=partialRectangle;overflow=hidden;connectable=0;fillColor=none;align=left;strokeColor=inherit;top=0;left=0;bottom=0;right=0;spacingLeft=6;fontStyle=5;" vertex="1" parent="JLLKguSDMvmR5vXuTiDU-9">
          <mxGeometry x="30" width="290" height="30" as="geometry">
            <mxRectangle width="290" height="30" as="alternateBounds" />
          </mxGeometry>
        </mxCell>
        <mxCell id="JLLKguSDMvmR5vXuTiDU-12" value="" style="shape=tableRow;horizontal=0;startSize=0;swimlaneHead=0;swimlaneBody=0;fillColor=none;collapsible=0;dropTarget=0;points=[[0,0.5],[1,0.5]];portConstraint=eastwest;strokeColor=inherit;top=0;left=0;right=0;bottom=0;" vertex="1" parent="JLLKguSDMvmR5vXuTiDU-8">
          <mxGeometry y="60" width="320" height="30" as="geometry" />
        </mxCell>
        <mxCell id="JLLKguSDMvmR5vXuTiDU-13" value="" style="shape=partialRectangle;overflow=hidden;connectable=0;fillColor=none;strokeColor=inherit;top=0;left=0;bottom=0;right=0;" vertex="1" parent="JLLKguSDMvmR5vXuTiDU-12">
          <mxGeometry width="30" height="30" as="geometry">
            <mxRectangle width="30" height="30" as="alternateBounds" />
          </mxGeometry>
        </mxCell>
        <mxCell id="JLLKguSDMvmR5vXuTiDU-14" value="patient_name VARCHAR(100) NOT NULL UNIQUE -- Name of the patient" style="shape=partialRectangle;overflow=hidden;connectable=0;fillColor=none;align=left;strokeColor=inherit;top=0;left=0;bottom=0;right=0;spacingLeft=6;" vertex="1" parent="JLLKguSDMvmR5vXuTiDU-12">
          <mxGeometry x="30" width="290" height="30" as="geometry">
            <mxRectangle width="290" height="30" as="alternateBounds" />
          </mxGeometry>
        </mxCell>
        <mxCell id="JLLKguSDMvmR5vXuTiDU-15" value="Visits" style="shape=table;startSize=30;container=1;collapsible=1;childLayout=tableLayout;fixedRows=1;rowLines=0;fontStyle=1;align=center;resizeLast=1;" vertex="1" parent="1">
          <mxGeometry x="-132" y="95" width="320" height="210" as="geometry" />
        </mxCell>
        <mxCell id="JLLKguSDMvmR5vXuTiDU-16" value="" style="shape=tableRow;horizontal=0;startSize=0;swimlaneHead=0;swimlaneBody=0;fillColor=none;collapsible=0;dropTarget=0;points=[[0,0.5],[1,0.5]];portConstraint=eastwest;strokeColor=inherit;top=0;left=0;right=0;bottom=1;" vertex="1" parent="JLLKguSDMvmR5vXuTiDU-15">
          <mxGeometry y="30" width="320" height="30" as="geometry" />
        </mxCell>
        <mxCell id="JLLKguSDMvmR5vXuTiDU-17" value="PK" style="shape=partialRectangle;overflow=hidden;connectable=0;fillColor=none;strokeColor=inherit;top=0;left=0;bottom=0;right=0;fontStyle=1;" vertex="1" parent="JLLKguSDMvmR5vXuTiDU-16">
          <mxGeometry width="30" height="30" as="geometry">
            <mxRectangle width="30" height="30" as="alternateBounds" />
          </mxGeometry>
        </mxCell>
        <mxCell id="JLLKguSDMvmR5vXuTiDU-18" value="patient_id INT UNIQUE, -- ID of the patient associated with the visit. This too!" style="shape=partialRectangle;overflow=hidden;connectable=0;fillColor=none;align=left;strokeColor=inherit;top=0;left=0;bottom=0;right=0;spacingLeft=6;fontStyle=5;" vertex="1" parent="JLLKguSDMvmR5vXuTiDU-16">
          <mxGeometry x="30" width="290" height="30" as="geometry">
            <mxRectangle width="290" height="30" as="alternateBounds" />
          </mxGeometry>
        </mxCell>
        <mxCell id="JLLKguSDMvmR5vXuTiDU-19" value="" style="shape=tableRow;horizontal=0;startSize=0;swimlaneHead=0;swimlaneBody=0;fillColor=none;collapsible=0;dropTarget=0;points=[[0,0.5],[1,0.5]];portConstraint=eastwest;strokeColor=inherit;top=0;left=0;right=0;bottom=1;" vertex="1" parent="JLLKguSDMvmR5vXuTiDU-15">
          <mxGeometry y="60" width="320" height="30" as="geometry" />
        </mxCell>
        <mxCell id="JLLKguSDMvmR5vXuTiDU-20" value="PK" style="shape=partialRectangle;overflow=hidden;connectable=0;fillColor=none;strokeColor=inherit;top=0;left=0;bottom=0;right=0;fontStyle=1;" vertex="1" parent="JLLKguSDMvmR5vXuTiDU-19">
          <mxGeometry width="30" height="30" as="geometry">
            <mxRectangle width="30" height="30" as="alternateBounds" />
          </mxGeometry>
        </mxCell>
        <mxCell id="JLLKguSDMvmR5vXuTiDU-21" value="doctor_id INT UNIQUE, -- ID of the doctor associated with the visit.  Maybe make this NOT NULL?" style="shape=partialRectangle;overflow=hidden;connectable=0;fillColor=none;align=left;strokeColor=inherit;top=0;left=0;bottom=0;right=0;spacingLeft=6;fontStyle=5;" vertex="1" parent="JLLKguSDMvmR5vXuTiDU-19">
          <mxGeometry x="30" width="290" height="30" as="geometry">
            <mxRectangle width="290" height="30" as="alternateBounds" />
          </mxGeometry>
        </mxCell>
        <mxCell id="JLLKguSDMvmR5vXuTiDU-22" value="" style="shape=tableRow;horizontal=0;startSize=0;swimlaneHead=0;swimlaneBody=0;fillColor=none;collapsible=0;dropTarget=0;points=[[0,0.5],[1,0.5]];portConstraint=eastwest;strokeColor=inherit;top=0;left=0;right=0;bottom=1;" vertex="1" parent="JLLKguSDMvmR5vXuTiDU-15">
          <mxGeometry y="90" width="320" height="30" as="geometry" />
        </mxCell>
        <mxCell id="JLLKguSDMvmR5vXuTiDU-23" value="PK" style="shape=partialRectangle;overflow=hidden;connectable=0;fillColor=none;strokeColor=inherit;top=0;left=0;bottom=0;right=0;fontStyle=1;" vertex="1" parent="JLLKguSDMvmR5vXuTiDU-22">
          <mxGeometry width="30" height="30" as="geometry">
            <mxRectangle width="30" height="30" as="alternateBounds" />
          </mxGeometry>
        </mxCell>
        <mxCell id="JLLKguSDMvmR5vXuTiDU-24" value="visit_id INT  UNIQUE, -- Unique identifier for each visit" style="shape=partialRectangle;overflow=hidden;connectable=0;fillColor=none;align=left;strokeColor=inherit;top=0;left=0;bottom=0;right=0;spacingLeft=6;fontStyle=5;" vertex="1" parent="JLLKguSDMvmR5vXuTiDU-22">
          <mxGeometry x="30" width="290" height="30" as="geometry">
            <mxRectangle width="290" height="30" as="alternateBounds" />
          </mxGeometry>
        </mxCell>
        <mxCell id="JLLKguSDMvmR5vXuTiDU-25" value="" style="shape=tableRow;horizontal=0;startSize=0;swimlaneHead=0;swimlaneBody=0;fillColor=none;collapsible=0;dropTarget=0;points=[[0,0.5],[1,0.5]];portConstraint=eastwest;strokeColor=inherit;top=0;left=0;right=0;bottom=0;" vertex="1" parent="JLLKguSDMvmR5vXuTiDU-15">
          <mxGeometry y="120" width="320" height="30" as="geometry" />
        </mxCell>
        <mxCell id="JLLKguSDMvmR5vXuTiDU-26" value="" style="shape=partialRectangle;overflow=hidden;connectable=0;fillColor=none;strokeColor=inherit;top=0;left=0;bottom=0;right=0;" vertex="1" parent="JLLKguSDMvmR5vXuTiDU-25">
          <mxGeometry width="30" height="30" as="geometry">
            <mxRectangle width="30" height="30" as="alternateBounds" />
          </mxGeometry>
        </mxCell>
        <mxCell id="JLLKguSDMvmR5vXuTiDU-27" value="visit_date DATE, -- Date of the visit." style="shape=partialRectangle;overflow=hidden;connectable=0;fillColor=none;align=left;strokeColor=inherit;top=0;left=0;bottom=0;right=0;spacingLeft=6;" vertex="1" parent="JLLKguSDMvmR5vXuTiDU-25">
          <mxGeometry x="30" width="290" height="30" as="geometry">
            <mxRectangle width="290" height="30" as="alternateBounds" />
          </mxGeometry>
        </mxCell>
        <mxCell id="JLLKguSDMvmR5vXuTiDU-28" value="" style="shape=tableRow;horizontal=0;startSize=0;swimlaneHead=0;swimlaneBody=0;fillColor=none;collapsible=0;dropTarget=0;points=[[0,0.5],[1,0.5]];portConstraint=eastwest;strokeColor=inherit;top=0;left=0;right=0;bottom=0;" vertex="1" parent="JLLKguSDMvmR5vXuTiDU-15">
          <mxGeometry y="150" width="320" height="30" as="geometry" />
        </mxCell>
        <mxCell id="JLLKguSDMvmR5vXuTiDU-29" value="" style="shape=partialRectangle;overflow=hidden;connectable=0;fillColor=none;strokeColor=inherit;top=0;left=0;bottom=0;right=0;" vertex="1" parent="JLLKguSDMvmR5vXuTiDU-28">
          <mxGeometry width="30" height="30" as="geometry">
            <mxRectangle width="30" height="30" as="alternateBounds" />
          </mxGeometry>
        </mxCell>
        <mxCell id="JLLKguSDMvmR5vXuTiDU-30" value="FOREIGN KEY (doctor_id) REFERENCES Doctors(doctor_id) ON DELETE SET NULL, -- Ensures that the doctor ID references a valid doctor in the Doctors table" style="shape=partialRectangle;overflow=hidden;connectable=0;fillColor=none;align=left;strokeColor=inherit;top=0;left=0;bottom=0;right=0;spacingLeft=6;" vertex="1" parent="JLLKguSDMvmR5vXuTiDU-28">
          <mxGeometry x="30" width="290" height="30" as="geometry">
            <mxRectangle width="290" height="30" as="alternateBounds" />
          </mxGeometry>
        </mxCell>
        <mxCell id="JLLKguSDMvmR5vXuTiDU-31" value="" style="shape=tableRow;horizontal=0;startSize=0;swimlaneHead=0;swimlaneBody=0;fillColor=none;collapsible=0;dropTarget=0;points=[[0,0.5],[1,0.5]];portConstraint=eastwest;strokeColor=inherit;top=0;left=0;right=0;bottom=0;" vertex="1" parent="JLLKguSDMvmR5vXuTiDU-15">
          <mxGeometry y="180" width="320" height="30" as="geometry" />
        </mxCell>
        <mxCell id="JLLKguSDMvmR5vXuTiDU-32" value="" style="shape=partialRectangle;overflow=hidden;connectable=0;fillColor=none;strokeColor=inherit;top=0;left=0;bottom=0;right=0;" vertex="1" parent="JLLKguSDMvmR5vXuTiDU-31">
          <mxGeometry width="30" height="30" as="geometry">
            <mxRectangle width="30" height="30" as="alternateBounds" />
          </mxGeometry>
        </mxCell>
        <mxCell id="JLLKguSDMvmR5vXuTiDU-33" value="FOREIGN KEY (patient_id) REFERENCES Patients(patient_id) ON DELETE SET NULL -- Ensures that the patient ID references a valid patient in the Patients table" style="shape=partialRectangle;overflow=hidden;connectable=0;fillColor=none;align=left;strokeColor=inherit;top=0;left=0;bottom=0;right=0;spacingLeft=6;" vertex="1" parent="JLLKguSDMvmR5vXuTiDU-31">
          <mxGeometry x="30" width="290" height="30" as="geometry">
            <mxRectangle width="290" height="30" as="alternateBounds" />
          </mxGeometry>
        </mxCell>
        <mxCell id="JLLKguSDMvmR5vXuTiDU-34" value="Diseases" style="shape=table;startSize=30;container=1;collapsible=1;childLayout=tableLayout;fixedRows=1;rowLines=0;fontStyle=1;align=center;resizeLast=1;" vertex="1" parent="1">
          <mxGeometry x="-500" y="221" width="320" height="150" as="geometry" />
        </mxCell>
        <mxCell id="JLLKguSDMvmR5vXuTiDU-35" value="" style="shape=tableRow;horizontal=0;startSize=0;swimlaneHead=0;swimlaneBody=0;fillColor=none;collapsible=0;dropTarget=0;points=[[0,0.5],[1,0.5]];portConstraint=eastwest;strokeColor=inherit;top=0;left=0;right=0;bottom=1;" vertex="1" parent="JLLKguSDMvmR5vXuTiDU-34">
          <mxGeometry y="30" width="320" height="30" as="geometry" />
        </mxCell>
        <mxCell id="JLLKguSDMvmR5vXuTiDU-36" value="PK" style="shape=partialRectangle;overflow=hidden;connectable=0;fillColor=none;strokeColor=inherit;top=0;left=0;bottom=0;right=0;fontStyle=1;" vertex="1" parent="JLLKguSDMvmR5vXuTiDU-35">
          <mxGeometry width="30" height="30" as="geometry">
            <mxRectangle width="30" height="30" as="alternateBounds" />
          </mxGeometry>
        </mxCell>
        <mxCell id="JLLKguSDMvmR5vXuTiDU-37" value="visit_id INT, -- ID of the visit associated with the disease" style="shape=partialRectangle;overflow=hidden;connectable=0;fillColor=none;align=left;strokeColor=inherit;top=0;left=0;bottom=0;right=0;spacingLeft=6;fontStyle=5;" vertex="1" parent="JLLKguSDMvmR5vXuTiDU-35">
          <mxGeometry x="30" width="290" height="30" as="geometry">
            <mxRectangle width="290" height="30" as="alternateBounds" />
          </mxGeometry>
        </mxCell>
        <mxCell id="JLLKguSDMvmR5vXuTiDU-38" value="" style="shape=tableRow;horizontal=0;startSize=0;swimlaneHead=0;swimlaneBody=0;fillColor=none;collapsible=0;dropTarget=0;points=[[0,0.5],[1,0.5]];portConstraint=eastwest;strokeColor=inherit;top=0;left=0;right=0;bottom=1;" vertex="1" parent="JLLKguSDMvmR5vXuTiDU-34">
          <mxGeometry y="60" width="320" height="30" as="geometry" />
        </mxCell>
        <mxCell id="JLLKguSDMvmR5vXuTiDU-39" value="PK" style="shape=partialRectangle;overflow=hidden;connectable=0;fillColor=none;strokeColor=inherit;top=0;left=0;bottom=0;right=0;fontStyle=1;" vertex="1" parent="JLLKguSDMvmR5vXuTiDU-38">
          <mxGeometry width="30" height="30" as="geometry">
            <mxRectangle width="30" height="30" as="alternateBounds" />
          </mxGeometry>
        </mxCell>
        <mxCell id="JLLKguSDMvmR5vXuTiDU-40" value="disease_name VARCHAR(100) NOT NULL UNIQUE, -- Name of the disease. Maybe could use  here instead of UNIQUE and NOT NULL?" style="shape=partialRectangle;overflow=hidden;connectable=0;fillColor=none;align=left;strokeColor=inherit;top=0;left=0;bottom=0;right=0;spacingLeft=6;fontStyle=5;" vertex="1" parent="JLLKguSDMvmR5vXuTiDU-38">
          <mxGeometry x="30" width="290" height="30" as="geometry">
            <mxRectangle width="290" height="30" as="alternateBounds" />
          </mxGeometry>
        </mxCell>
        <mxCell id="JLLKguSDMvmR5vXuTiDU-41" value="" style="shape=tableRow;horizontal=0;startSize=0;swimlaneHead=0;swimlaneBody=0;fillColor=none;collapsible=0;dropTarget=0;points=[[0,0.5],[1,0.5]];portConstraint=eastwest;strokeColor=inherit;top=0;left=0;right=0;bottom=1;" vertex="1" parent="JLLKguSDMvmR5vXuTiDU-34">
          <mxGeometry y="90" width="320" height="30" as="geometry" />
        </mxCell>
        <mxCell id="JLLKguSDMvmR5vXuTiDU-42" value="PK" style="shape=partialRectangle;overflow=hidden;connectable=0;fillColor=none;strokeColor=inherit;top=0;left=0;bottom=0;right=0;fontStyle=1;" vertex="1" parent="JLLKguSDMvmR5vXuTiDU-41">
          <mxGeometry width="30" height="30" as="geometry">
            <mxRectangle width="30" height="30" as="alternateBounds" />
          </mxGeometry>
        </mxCell>
        <mxCell id="JLLKguSDMvmR5vXuTiDU-43" value="disease_id INT  UNIQUE, -- Unique identifier for each disease" style="shape=partialRectangle;overflow=hidden;connectable=0;fillColor=none;align=left;strokeColor=inherit;top=0;left=0;bottom=0;right=0;spacingLeft=6;fontStyle=5;" vertex="1" parent="JLLKguSDMvmR5vXuTiDU-41">
          <mxGeometry x="30" width="290" height="30" as="geometry">
            <mxRectangle width="290" height="30" as="alternateBounds" />
          </mxGeometry>
        </mxCell>
        <mxCell id="JLLKguSDMvmR5vXuTiDU-44" value="" style="shape=tableRow;horizontal=0;startSize=0;swimlaneHead=0;swimlaneBody=0;fillColor=none;collapsible=0;dropTarget=0;points=[[0,0.5],[1,0.5]];portConstraint=eastwest;strokeColor=inherit;top=0;left=0;right=0;bottom=0;" vertex="1" parent="JLLKguSDMvmR5vXuTiDU-34">
          <mxGeometry y="120" width="320" height="30" as="geometry" />
        </mxCell>
        <mxCell id="JLLKguSDMvmR5vXuTiDU-45" value="" style="shape=partialRectangle;overflow=hidden;connectable=0;fillColor=none;strokeColor=inherit;top=0;left=0;bottom=0;right=0;" vertex="1" parent="JLLKguSDMvmR5vXuTiDU-44">
          <mxGeometry width="30" height="30" as="geometry">
            <mxRectangle width="30" height="30" as="alternateBounds" />
          </mxGeometry>
        </mxCell>
        <mxCell id="JLLKguSDMvmR5vXuTiDU-46" value="FOREIGN KEY (visit_id) REFERENCES Visits(visit_id) ON DELETE SET NULL -- Ensures that the visit ID references a valid visit in the Visits table" style="shape=partialRectangle;overflow=hidden;connectable=0;fillColor=none;align=left;strokeColor=inherit;top=0;left=0;bottom=0;right=0;spacingLeft=6;" vertex="1" parent="JLLKguSDMvmR5vXuTiDU-44">
          <mxGeometry x="30" width="290" height="30" as="geometry">
            <mxRectangle width="290" height="30" as="alternateBounds" />
          </mxGeometry>
        </mxCell>
        <mxCell id="JLLKguSDMvmR5vXuTiDU-47" value="Diagnoses" style="shape=table;startSize=30;container=1;collapsible=1;childLayout=tableLayout;fixedRows=1;rowLines=0;fontStyle=1;align=center;resizeLast=1;" vertex="1" parent="1">
          <mxGeometry x="-132" y="339" width="320" height="210" as="geometry" />
        </mxCell>
        <mxCell id="JLLKguSDMvmR5vXuTiDU-48" value="" style="shape=tableRow;horizontal=0;startSize=0;swimlaneHead=0;swimlaneBody=0;fillColor=none;collapsible=0;dropTarget=0;points=[[0,0.5],[1,0.5]];portConstraint=eastwest;strokeColor=inherit;top=0;left=0;right=0;bottom=1;" vertex="1" parent="JLLKguSDMvmR5vXuTiDU-47">
          <mxGeometry y="30" width="320" height="30" as="geometry" />
        </mxCell>
        <mxCell id="JLLKguSDMvmR5vXuTiDU-49" value="PK" style="shape=partialRectangle;overflow=hidden;connectable=0;fillColor=none;strokeColor=inherit;top=0;left=0;bottom=0;right=0;fontStyle=1;" vertex="1" parent="JLLKguSDMvmR5vXuTiDU-48">
          <mxGeometry width="30" height="30" as="geometry">
            <mxRectangle width="30" height="30" as="alternateBounds" />
          </mxGeometry>
        </mxCell>
        <mxCell id="JLLKguSDMvmR5vXuTiDU-50" value="diagnosis_id INT  UNIQUE, -- Unique identifier for each diagnosis" style="shape=partialRectangle;overflow=hidden;connectable=0;fillColor=none;align=left;strokeColor=inherit;top=0;left=0;bottom=0;right=0;spacingLeft=6;fontStyle=5;" vertex="1" parent="JLLKguSDMvmR5vXuTiDU-48">
          <mxGeometry x="30" width="290" height="30" as="geometry">
            <mxRectangle width="290" height="30" as="alternateBounds" />
          </mxGeometry>
        </mxCell>
        <mxCell id="JLLKguSDMvmR5vXuTiDU-51" value="" style="shape=tableRow;horizontal=0;startSize=0;swimlaneHead=0;swimlaneBody=0;fillColor=none;collapsible=0;dropTarget=0;points=[[0,0.5],[1,0.5]];portConstraint=eastwest;strokeColor=inherit;top=0;left=0;right=0;bottom=0;" vertex="1" parent="JLLKguSDMvmR5vXuTiDU-47">
          <mxGeometry y="60" width="320" height="30" as="geometry" />
        </mxCell>
        <mxCell id="JLLKguSDMvmR5vXuTiDU-52" value="" style="shape=partialRectangle;overflow=hidden;connectable=0;fillColor=none;strokeColor=inherit;top=0;left=0;bottom=0;right=0;" vertex="1" parent="JLLKguSDMvmR5vXuTiDU-51">
          <mxGeometry width="30" height="30" as="geometry">
            <mxRectangle width="30" height="30" as="alternateBounds" />
          </mxGeometry>
        </mxCell>
        <mxCell id="JLLKguSDMvmR5vXuTiDU-53" value="visit_id INT, -- ID of the visit associated with the diagnosis" style="shape=partialRectangle;overflow=hidden;connectable=0;fillColor=none;align=left;strokeColor=inherit;top=0;left=0;bottom=0;right=0;spacingLeft=6;" vertex="1" parent="JLLKguSDMvmR5vXuTiDU-51">
          <mxGeometry x="30" width="290" height="30" as="geometry">
            <mxRectangle width="290" height="30" as="alternateBounds" />
          </mxGeometry>
        </mxCell>
        <mxCell id="JLLKguSDMvmR5vXuTiDU-54" value="" style="shape=tableRow;horizontal=0;startSize=0;swimlaneHead=0;swimlaneBody=0;fillColor=none;collapsible=0;dropTarget=0;points=[[0,0.5],[1,0.5]];portConstraint=eastwest;strokeColor=inherit;top=0;left=0;right=0;bottom=0;" vertex="1" parent="JLLKguSDMvmR5vXuTiDU-47">
          <mxGeometry y="90" width="320" height="30" as="geometry" />
        </mxCell>
        <mxCell id="JLLKguSDMvmR5vXuTiDU-55" value="" style="shape=partialRectangle;overflow=hidden;connectable=0;fillColor=none;strokeColor=inherit;top=0;left=0;bottom=0;right=0;" vertex="1" parent="JLLKguSDMvmR5vXuTiDU-54">
          <mxGeometry width="30" height="30" as="geometry">
            <mxRectangle width="30" height="30" as="alternateBounds" />
          </mxGeometry>
        </mxCell>
        <mxCell id="JLLKguSDMvmR5vXuTiDU-56" value="disease_id INT, -- ID of the disease associated with the diagnosis" style="shape=partialRectangle;overflow=hidden;connectable=0;fillColor=none;align=left;strokeColor=inherit;top=0;left=0;bottom=0;right=0;spacingLeft=6;" vertex="1" parent="JLLKguSDMvmR5vXuTiDU-54">
          <mxGeometry x="30" width="290" height="30" as="geometry">
            <mxRectangle width="290" height="30" as="alternateBounds" />
          </mxGeometry>
        </mxCell>
        <mxCell id="JLLKguSDMvmR5vXuTiDU-57" value="" style="shape=tableRow;horizontal=0;startSize=0;swimlaneHead=0;swimlaneBody=0;fillColor=none;collapsible=0;dropTarget=0;points=[[0,0.5],[1,0.5]];portConstraint=eastwest;strokeColor=inherit;top=0;left=0;right=0;bottom=0;" vertex="1" parent="JLLKguSDMvmR5vXuTiDU-47">
          <mxGeometry y="120" width="320" height="30" as="geometry" />
        </mxCell>
        <mxCell id="JLLKguSDMvmR5vXuTiDU-58" value="" style="shape=partialRectangle;overflow=hidden;connectable=0;fillColor=none;strokeColor=inherit;top=0;left=0;bottom=0;right=0;" vertex="1" parent="JLLKguSDMvmR5vXuTiDU-57">
          <mxGeometry width="30" height="30" as="geometry">
            <mxRectangle width="30" height="30" as="alternateBounds" />
          </mxGeometry>
        </mxCell>
        <mxCell id="JLLKguSDMvmR5vXuTiDU-59" value="notes VARCHAR(255), -- Additional notes for the diagnosis" style="shape=partialRectangle;overflow=hidden;connectable=0;fillColor=none;align=left;strokeColor=inherit;top=0;left=0;bottom=0;right=0;spacingLeft=6;" vertex="1" parent="JLLKguSDMvmR5vXuTiDU-57">
          <mxGeometry x="30" width="290" height="30" as="geometry">
            <mxRectangle width="290" height="30" as="alternateBounds" />
          </mxGeometry>
        </mxCell>
        <mxCell id="JLLKguSDMvmR5vXuTiDU-60" value="" style="shape=tableRow;horizontal=0;startSize=0;swimlaneHead=0;swimlaneBody=0;fillColor=none;collapsible=0;dropTarget=0;points=[[0,0.5],[1,0.5]];portConstraint=eastwest;strokeColor=inherit;top=0;left=0;right=0;bottom=0;" vertex="1" parent="JLLKguSDMvmR5vXuTiDU-47">
          <mxGeometry y="150" width="320" height="30" as="geometry" />
        </mxCell>
        <mxCell id="JLLKguSDMvmR5vXuTiDU-61" value="" style="shape=partialRectangle;overflow=hidden;connectable=0;fillColor=none;strokeColor=inherit;top=0;left=0;bottom=0;right=0;" vertex="1" parent="JLLKguSDMvmR5vXuTiDU-60">
          <mxGeometry width="30" height="30" as="geometry">
            <mxRectangle width="30" height="30" as="alternateBounds" />
          </mxGeometry>
        </mxCell>
        <mxCell id="JLLKguSDMvmR5vXuTiDU-62" value="FOREIGN KEY (visit_id) REFERENCES Visits(visit_id) ON DELETE SET NULL, -- Ensures that the visit ID references a valid visit in the Visits table" style="shape=partialRectangle;overflow=hidden;connectable=0;fillColor=none;align=left;strokeColor=inherit;top=0;left=0;bottom=0;right=0;spacingLeft=6;" vertex="1" parent="JLLKguSDMvmR5vXuTiDU-60">
          <mxGeometry x="30" width="290" height="30" as="geometry">
            <mxRectangle width="290" height="30" as="alternateBounds" />
          </mxGeometry>
        </mxCell>
        <mxCell id="JLLKguSDMvmR5vXuTiDU-63" value="" style="shape=tableRow;horizontal=0;startSize=0;swimlaneHead=0;swimlaneBody=0;fillColor=none;collapsible=0;dropTarget=0;points=[[0,0.5],[1,0.5]];portConstraint=eastwest;strokeColor=inherit;top=0;left=0;right=0;bottom=0;" vertex="1" parent="JLLKguSDMvmR5vXuTiDU-47">
          <mxGeometry y="180" width="320" height="30" as="geometry" />
        </mxCell>
        <mxCell id="JLLKguSDMvmR5vXuTiDU-64" value="" style="shape=partialRectangle;overflow=hidden;connectable=0;fillColor=none;strokeColor=inherit;top=0;left=0;bottom=0;right=0;" vertex="1" parent="JLLKguSDMvmR5vXuTiDU-63">
          <mxGeometry width="30" height="30" as="geometry">
            <mxRectangle width="30" height="30" as="alternateBounds" />
          </mxGeometry>
        </mxCell>
        <mxCell id="JLLKguSDMvmR5vXuTiDU-65" value="FOREIGN KEY (disease_id) REFERENCES Diseases(disease_id) ON DELETE SET NULL -- Ensures that the disease ID references a valid disease in the Diseases table" style="shape=partialRectangle;overflow=hidden;connectable=0;fillColor=none;align=left;strokeColor=inherit;top=0;left=0;bottom=0;right=0;spacingLeft=6;" vertex="1" parent="JLLKguSDMvmR5vXuTiDU-63">
          <mxGeometry x="30" width="290" height="30" as="geometry">
            <mxRectangle width="290" height="30" as="alternateBounds" />
          </mxGeometry>
        </mxCell>
        <mxCell id="JLLKguSDMvmR5vXuTiDU-66" value="" style="edgeStyle=entityRelationEdgeStyle;fontSize=12;html=1;endArrow=ERoneToMany;startArrow=ERoneToMany;rounded=0;entryX=-0.007;entryY=-0.098;entryDx=0;entryDy=0;entryPerimeter=0;exitX=1.003;exitY=0.31;exitDx=0;exitDy=0;exitPerimeter=0;" edge="1" parent="1" source="JLLKguSDMvmR5vXuTiDU-41" target="JLLKguSDMvmR5vXuTiDU-51">
          <mxGeometry width="100" height="100" relative="1" as="geometry">
            <mxPoint x="-284" y="528" as="sourcePoint" />
            <mxPoint x="-184" y="428" as="targetPoint" />
            <Array as="points">
              <mxPoint x="-426" y="690" />
            </Array>
          </mxGeometry>
        </mxCell>
        <mxCell id="JLLKguSDMvmR5vXuTiDU-67" value="" style="edgeStyle=entityRelationEdgeStyle;fontSize=12;html=1;endArrow=ERoneToMany;startArrow=ERoneToMany;rounded=0;entryX=0;entryY=0.75;entryDx=0;entryDy=0;exitX=1.005;exitY=0.641;exitDx=0;exitDy=0;exitPerimeter=0;" edge="1" parent="1" source="JLLKguSDMvmR5vXuTiDU-5" target="JLLKguSDMvmR5vXuTiDU-15">
          <mxGeometry width="100" height="100" relative="1" as="geometry">
            <mxPoint x="-167" y="219" as="sourcePoint" />
            <mxPoint x="-174" y="438" as="targetPoint" />
            <Array as="points">
              <mxPoint x="-416" y="700" />
            </Array>
          </mxGeometry>
        </mxCell>
        <mxCell id="JLLKguSDMvmR5vXuTiDU-68" value="" style="edgeStyle=entityRelationEdgeStyle;fontSize=12;html=1;endArrow=ERoneToMany;startArrow=ERoneToMany;rounded=0;exitX=1;exitY=0.25;exitDx=0;exitDy=0;entryX=-0.002;entryY=0.025;entryDx=0;entryDy=0;entryPerimeter=0;" edge="1" parent="1" source="JLLKguSDMvmR5vXuTiDU-15" target="JLLKguSDMvmR5vXuTiDU-9">
          <mxGeometry width="100" height="100" relative="1" as="geometry">
            <mxPoint x="234" y="321" as="sourcePoint" />
            <mxPoint x="334" y="221" as="targetPoint" />
            <Array as="points">
              <mxPoint x="92" y="483" />
            </Array>
          </mxGeometry>
        </mxCell>
        <mxCell id="JLLKguSDMvmR5vXuTiDU-70" value="" style="edgeStyle=entityRelationEdgeStyle;fontSize=12;html=1;endArrow=ERoneToMany;startArrow=ERoneToMany;rounded=0;" edge="1" parent="1" target="JLLKguSDMvmR5vXuTiDU-22">
          <mxGeometry width="100" height="100" relative="1" as="geometry">
            <mxPoint x="188" y="355" as="sourcePoint" />
            <mxPoint x="253" y="347" as="targetPoint" />
            <Array as="points">
              <mxPoint x="11" y="609" />
              <mxPoint x="492" y="355" />
            </Array>
          </mxGeometry>
        </mxCell>
      </root>
    </mxGraphModel>
  </diagram>
  <diagram id="bhF8xdHoL4OhanuT4gFC" name="Page-3">
    <mxGraphModel dx="3167" dy="871" grid="1" gridSize="10" guides="1" tooltips="1" connect="1" arrows="1" fold="1" page="1" pageScale="1" pageWidth="850" pageHeight="1100" math="0" shadow="0">
      <root>
        <mxCell id="0" />
        <mxCell id="1" parent="0" />
        <mxCell id="yk_zfGp0-UbUkJ6MIm1z-1" value="Teams" style="shape=table;startSize=30;container=1;collapsible=1;childLayout=tableLayout;fixedRows=1;rowLines=0;fontStyle=1;align=center;resizeLast=1;" vertex="1" parent="1">
          <mxGeometry x="-1010" y="340" width="320" height="90" as="geometry" />
        </mxCell>
        <mxCell id="yk_zfGp0-UbUkJ6MIm1z-2" value="" style="shape=tableRow;horizontal=0;startSize=0;swimlaneHead=0;swimlaneBody=0;fillColor=none;collapsible=0;dropTarget=0;points=[[0,0.5],[1,0.5]];portConstraint=eastwest;strokeColor=inherit;top=0;left=0;right=0;bottom=1;" vertex="1" parent="yk_zfGp0-UbUkJ6MIm1z-1">
          <mxGeometry y="30" width="320" height="30" as="geometry" />
        </mxCell>
        <mxCell id="yk_zfGp0-UbUkJ6MIm1z-3" value="PK" style="shape=partialRectangle;overflow=hidden;connectable=0;fillColor=none;strokeColor=inherit;top=0;left=0;bottom=0;right=0;fontStyle=1;" vertex="1" parent="yk_zfGp0-UbUkJ6MIm1z-2">
          <mxGeometry width="30" height="30" as="geometry">
            <mxRectangle width="30" height="30" as="alternateBounds" />
          </mxGeometry>
        </mxCell>
        <mxCell id="yk_zfGp0-UbUkJ6MIm1z-4" value="team_id INT , -- Unique identifier for each team" style="shape=partialRectangle;overflow=hidden;connectable=0;fillColor=none;align=left;strokeColor=inherit;top=0;left=0;bottom=0;right=0;spacingLeft=6;fontStyle=5;" vertex="1" parent="yk_zfGp0-UbUkJ6MIm1z-2">
          <mxGeometry x="30" width="290" height="30" as="geometry">
            <mxRectangle width="290" height="30" as="alternateBounds" />
          </mxGeometry>
        </mxCell>
        <mxCell id="yk_zfGp0-UbUkJ6MIm1z-5" value="" style="shape=tableRow;horizontal=0;startSize=0;swimlaneHead=0;swimlaneBody=0;fillColor=none;collapsible=0;dropTarget=0;points=[[0,0.5],[1,0.5]];portConstraint=eastwest;strokeColor=inherit;top=0;left=0;right=0;bottom=0;" vertex="1" parent="yk_zfGp0-UbUkJ6MIm1z-1">
          <mxGeometry y="60" width="320" height="30" as="geometry" />
        </mxCell>
        <mxCell id="yk_zfGp0-UbUkJ6MIm1z-6" value="" style="shape=partialRectangle;overflow=hidden;connectable=0;fillColor=none;strokeColor=inherit;top=0;left=0;bottom=0;right=0;" vertex="1" parent="yk_zfGp0-UbUkJ6MIm1z-5">
          <mxGeometry width="30" height="30" as="geometry">
            <mxRectangle width="30" height="30" as="alternateBounds" />
          </mxGeometry>
        </mxCell>
        <mxCell id="yk_zfGp0-UbUkJ6MIm1z-7" value="team_name VARCHAR(100) NOT NULL -- Name of the team" style="shape=partialRectangle;overflow=hidden;connectable=0;fillColor=none;align=left;strokeColor=inherit;top=0;left=0;bottom=0;right=0;spacingLeft=6;" vertex="1" parent="yk_zfGp0-UbUkJ6MIm1z-5">
          <mxGeometry x="30" width="290" height="30" as="geometry">
            <mxRectangle width="290" height="30" as="alternateBounds" />
          </mxGeometry>
        </mxCell>
        <mxCell id="yk_zfGp0-UbUkJ6MIm1z-8" value="Players" style="shape=table;startSize=30;container=1;collapsible=1;childLayout=tableLayout;fixedRows=1;rowLines=0;fontStyle=1;align=center;resizeLast=1;" vertex="1" parent="1">
          <mxGeometry x="-640" y="230" width="320" height="150" as="geometry" />
        </mxCell>
        <mxCell id="yk_zfGp0-UbUkJ6MIm1z-9" value="" style="shape=tableRow;horizontal=0;startSize=0;swimlaneHead=0;swimlaneBody=0;fillColor=none;collapsible=0;dropTarget=0;points=[[0,0.5],[1,0.5]];portConstraint=eastwest;strokeColor=inherit;top=0;left=0;right=0;bottom=1;" vertex="1" parent="yk_zfGp0-UbUkJ6MIm1z-8">
          <mxGeometry y="30" width="320" height="30" as="geometry" />
        </mxCell>
        <mxCell id="yk_zfGp0-UbUkJ6MIm1z-10" value="PK" style="shape=partialRectangle;overflow=hidden;connectable=0;fillColor=none;strokeColor=inherit;top=0;left=0;bottom=0;right=0;fontStyle=1;" vertex="1" parent="yk_zfGp0-UbUkJ6MIm1z-9">
          <mxGeometry width="30" height="30" as="geometry">
            <mxRectangle width="30" height="30" as="alternateBounds" />
          </mxGeometry>
        </mxCell>
        <mxCell id="yk_zfGp0-UbUkJ6MIm1z-11" value="team_id INT, -- ID of the team the player belongs to" style="shape=partialRectangle;overflow=hidden;connectable=0;fillColor=none;align=left;strokeColor=inherit;top=0;left=0;bottom=0;right=0;spacingLeft=6;fontStyle=5;" vertex="1" parent="yk_zfGp0-UbUkJ6MIm1z-9">
          <mxGeometry x="30" width="290" height="30" as="geometry">
            <mxRectangle width="290" height="30" as="alternateBounds" />
          </mxGeometry>
        </mxCell>
        <mxCell id="yk_zfGp0-UbUkJ6MIm1z-12" value="" style="shape=tableRow;horizontal=0;startSize=0;swimlaneHead=0;swimlaneBody=0;fillColor=none;collapsible=0;dropTarget=0;points=[[0,0.5],[1,0.5]];portConstraint=eastwest;strokeColor=inherit;top=0;left=0;right=0;bottom=1;" vertex="1" parent="yk_zfGp0-UbUkJ6MIm1z-8">
          <mxGeometry y="60" width="320" height="30" as="geometry" />
        </mxCell>
        <mxCell id="yk_zfGp0-UbUkJ6MIm1z-13" value="PK" style="shape=partialRectangle;overflow=hidden;connectable=0;fillColor=none;strokeColor=inherit;top=0;left=0;bottom=0;right=0;fontStyle=1;" vertex="1" parent="yk_zfGp0-UbUkJ6MIm1z-12">
          <mxGeometry width="30" height="30" as="geometry">
            <mxRectangle width="30" height="30" as="alternateBounds" />
          </mxGeometry>
        </mxCell>
        <mxCell id="yk_zfGp0-UbUkJ6MIm1z-14" value="player_id INT , -- Unique identifier for each player" style="shape=partialRectangle;overflow=hidden;connectable=0;fillColor=none;align=left;strokeColor=inherit;top=0;left=0;bottom=0;right=0;spacingLeft=6;fontStyle=5;" vertex="1" parent="yk_zfGp0-UbUkJ6MIm1z-12">
          <mxGeometry x="30" width="290" height="30" as="geometry">
            <mxRectangle width="290" height="30" as="alternateBounds" />
          </mxGeometry>
        </mxCell>
        <mxCell id="yk_zfGp0-UbUkJ6MIm1z-15" value="" style="shape=tableRow;horizontal=0;startSize=0;swimlaneHead=0;swimlaneBody=0;fillColor=none;collapsible=0;dropTarget=0;points=[[0,0.5],[1,0.5]];portConstraint=eastwest;strokeColor=inherit;top=0;left=0;right=0;bottom=0;" vertex="1" parent="yk_zfGp0-UbUkJ6MIm1z-8">
          <mxGeometry y="90" width="320" height="30" as="geometry" />
        </mxCell>
        <mxCell id="yk_zfGp0-UbUkJ6MIm1z-16" value="" style="shape=partialRectangle;overflow=hidden;connectable=0;fillColor=none;strokeColor=inherit;top=0;left=0;bottom=0;right=0;" vertex="1" parent="yk_zfGp0-UbUkJ6MIm1z-15">
          <mxGeometry width="30" height="30" as="geometry">
            <mxRectangle width="30" height="30" as="alternateBounds" />
          </mxGeometry>
        </mxCell>
        <mxCell id="yk_zfGp0-UbUkJ6MIm1z-17" value="player_name VARCHAR(100) NOT NULL, -- Name of the player" style="shape=partialRectangle;overflow=hidden;connectable=0;fillColor=none;align=left;strokeColor=inherit;top=0;left=0;bottom=0;right=0;spacingLeft=6;" vertex="1" parent="yk_zfGp0-UbUkJ6MIm1z-15">
          <mxGeometry x="30" width="290" height="30" as="geometry">
            <mxRectangle width="290" height="30" as="alternateBounds" />
          </mxGeometry>
        </mxCell>
        <mxCell id="yk_zfGp0-UbUkJ6MIm1z-18" value="" style="shape=tableRow;horizontal=0;startSize=0;swimlaneHead=0;swimlaneBody=0;fillColor=none;collapsible=0;dropTarget=0;points=[[0,0.5],[1,0.5]];portConstraint=eastwest;strokeColor=inherit;top=0;left=0;right=0;bottom=0;" vertex="1" parent="yk_zfGp0-UbUkJ6MIm1z-8">
          <mxGeometry y="120" width="320" height="30" as="geometry" />
        </mxCell>
        <mxCell id="yk_zfGp0-UbUkJ6MIm1z-19" value="" style="shape=partialRectangle;overflow=hidden;connectable=0;fillColor=none;strokeColor=inherit;top=0;left=0;bottom=0;right=0;" vertex="1" parent="yk_zfGp0-UbUkJ6MIm1z-18">
          <mxGeometry width="30" height="30" as="geometry">
            <mxRectangle width="30" height="30" as="alternateBounds" />
          </mxGeometry>
        </mxCell>
        <mxCell id="yk_zfGp0-UbUkJ6MIm1z-20" value="FOREIGN KEY (team_id) REFERENCES Teams(team_id) ON DELETE SET NULL -- Establish a relationship with the &quot;Teams&quot; table" style="shape=partialRectangle;overflow=hidden;connectable=0;fillColor=none;align=left;strokeColor=inherit;top=0;left=0;bottom=0;right=0;spacingLeft=6;" vertex="1" parent="yk_zfGp0-UbUkJ6MIm1z-18">
          <mxGeometry x="30" width="290" height="30" as="geometry">
            <mxRectangle width="290" height="30" as="alternateBounds" />
          </mxGeometry>
        </mxCell>
        <mxCell id="yk_zfGp0-UbUkJ6MIm1z-21" value="Referees" style="shape=table;startSize=30;container=1;collapsible=1;childLayout=tableLayout;fixedRows=1;rowLines=0;fontStyle=1;align=center;resizeLast=1;" vertex="1" parent="1">
          <mxGeometry x="-1010" y="460" width="320" height="90" as="geometry" />
        </mxCell>
        <mxCell id="yk_zfGp0-UbUkJ6MIm1z-22" value="" style="shape=tableRow;horizontal=0;startSize=0;swimlaneHead=0;swimlaneBody=0;fillColor=none;collapsible=0;dropTarget=0;points=[[0,0.5],[1,0.5]];portConstraint=eastwest;strokeColor=inherit;top=0;left=0;right=0;bottom=1;" vertex="1" parent="yk_zfGp0-UbUkJ6MIm1z-21">
          <mxGeometry y="30" width="320" height="30" as="geometry" />
        </mxCell>
        <mxCell id="yk_zfGp0-UbUkJ6MIm1z-23" value="PK" style="shape=partialRectangle;overflow=hidden;connectable=0;fillColor=none;strokeColor=inherit;top=0;left=0;bottom=0;right=0;fontStyle=1;" vertex="1" parent="yk_zfGp0-UbUkJ6MIm1z-22">
          <mxGeometry width="30" height="30" as="geometry">
            <mxRectangle width="30" height="30" as="alternateBounds" />
          </mxGeometry>
        </mxCell>
        <mxCell id="yk_zfGp0-UbUkJ6MIm1z-24" value="referee_name VARCHAR(100) NOT NULL UNIQUE -- Name of the referee (must be unique). Could use  here instead of UNIQUE and NOT NULL?" style="shape=partialRectangle;overflow=hidden;connectable=0;fillColor=none;align=left;strokeColor=inherit;top=0;left=0;bottom=0;right=0;spacingLeft=6;fontStyle=5;" vertex="1" parent="yk_zfGp0-UbUkJ6MIm1z-22">
          <mxGeometry x="30" width="290" height="30" as="geometry">
            <mxRectangle width="290" height="30" as="alternateBounds" />
          </mxGeometry>
        </mxCell>
        <mxCell id="yk_zfGp0-UbUkJ6MIm1z-25" value="" style="shape=tableRow;horizontal=0;startSize=0;swimlaneHead=0;swimlaneBody=0;fillColor=none;collapsible=0;dropTarget=0;points=[[0,0.5],[1,0.5]];portConstraint=eastwest;strokeColor=inherit;top=0;left=0;right=0;bottom=1;" vertex="1" parent="yk_zfGp0-UbUkJ6MIm1z-21">
          <mxGeometry y="60" width="320" height="30" as="geometry" />
        </mxCell>
        <mxCell id="yk_zfGp0-UbUkJ6MIm1z-26" value="PK" style="shape=partialRectangle;overflow=hidden;connectable=0;fillColor=none;strokeColor=inherit;top=0;left=0;bottom=0;right=0;fontStyle=1;" vertex="1" parent="yk_zfGp0-UbUkJ6MIm1z-25">
          <mxGeometry width="30" height="30" as="geometry">
            <mxRectangle width="30" height="30" as="alternateBounds" />
          </mxGeometry>
        </mxCell>
        <mxCell id="yk_zfGp0-UbUkJ6MIm1z-27" value="referee_id INT , -- Unique identifier for each referee" style="shape=partialRectangle;overflow=hidden;connectable=0;fillColor=none;align=left;strokeColor=inherit;top=0;left=0;bottom=0;right=0;spacingLeft=6;fontStyle=5;" vertex="1" parent="yk_zfGp0-UbUkJ6MIm1z-25">
          <mxGeometry x="30" width="290" height="30" as="geometry">
            <mxRectangle width="290" height="30" as="alternateBounds" />
          </mxGeometry>
        </mxCell>
        <mxCell id="yk_zfGp0-UbUkJ6MIm1z-28" value="Seasons" style="shape=table;startSize=30;container=1;collapsible=1;childLayout=tableLayout;fixedRows=1;rowLines=0;fontStyle=1;align=center;resizeLast=1;" vertex="1" parent="1">
          <mxGeometry x="-290" y="640" width="320" height="120" as="geometry" />
        </mxCell>
        <mxCell id="yk_zfGp0-UbUkJ6MIm1z-29" value="" style="shape=tableRow;horizontal=0;startSize=0;swimlaneHead=0;swimlaneBody=0;fillColor=none;collapsible=0;dropTarget=0;points=[[0,0.5],[1,0.5]];portConstraint=eastwest;strokeColor=inherit;top=0;left=0;right=0;bottom=1;" vertex="1" parent="yk_zfGp0-UbUkJ6MIm1z-28">
          <mxGeometry y="30" width="320" height="30" as="geometry" />
        </mxCell>
        <mxCell id="yk_zfGp0-UbUkJ6MIm1z-30" value="PK" style="shape=partialRectangle;overflow=hidden;connectable=0;fillColor=none;strokeColor=inherit;top=0;left=0;bottom=0;right=0;fontStyle=1;" vertex="1" parent="yk_zfGp0-UbUkJ6MIm1z-29">
          <mxGeometry width="30" height="30" as="geometry">
            <mxRectangle width="30" height="30" as="alternateBounds" />
          </mxGeometry>
        </mxCell>
        <mxCell id="yk_zfGp0-UbUkJ6MIm1z-31" value="season_id INT , -- Unique identifier for each season" style="shape=partialRectangle;overflow=hidden;connectable=0;fillColor=none;align=left;strokeColor=inherit;top=0;left=0;bottom=0;right=0;spacingLeft=6;fontStyle=5;" vertex="1" parent="yk_zfGp0-UbUkJ6MIm1z-29">
          <mxGeometry x="30" width="290" height="30" as="geometry">
            <mxRectangle width="290" height="30" as="alternateBounds" />
          </mxGeometry>
        </mxCell>
        <mxCell id="yk_zfGp0-UbUkJ6MIm1z-32" value="" style="shape=tableRow;horizontal=0;startSize=0;swimlaneHead=0;swimlaneBody=0;fillColor=none;collapsible=0;dropTarget=0;points=[[0,0.5],[1,0.5]];portConstraint=eastwest;strokeColor=inherit;top=0;left=0;right=0;bottom=0;" vertex="1" parent="yk_zfGp0-UbUkJ6MIm1z-28">
          <mxGeometry y="60" width="320" height="30" as="geometry" />
        </mxCell>
        <mxCell id="yk_zfGp0-UbUkJ6MIm1z-33" value="" style="shape=partialRectangle;overflow=hidden;connectable=0;fillColor=none;strokeColor=inherit;top=0;left=0;bottom=0;right=0;" vertex="1" parent="yk_zfGp0-UbUkJ6MIm1z-32">
          <mxGeometry width="30" height="30" as="geometry">
            <mxRectangle width="30" height="30" as="alternateBounds" />
          </mxGeometry>
        </mxCell>
        <mxCell id="yk_zfGp0-UbUkJ6MIm1z-34" value="start_date DATE NOT NULL, -- Start date of the season" style="shape=partialRectangle;overflow=hidden;connectable=0;fillColor=none;align=left;strokeColor=inherit;top=0;left=0;bottom=0;right=0;spacingLeft=6;" vertex="1" parent="yk_zfGp0-UbUkJ6MIm1z-32">
          <mxGeometry x="30" width="290" height="30" as="geometry">
            <mxRectangle width="290" height="30" as="alternateBounds" />
          </mxGeometry>
        </mxCell>
        <mxCell id="yk_zfGp0-UbUkJ6MIm1z-35" value="" style="shape=tableRow;horizontal=0;startSize=0;swimlaneHead=0;swimlaneBody=0;fillColor=none;collapsible=0;dropTarget=0;points=[[0,0.5],[1,0.5]];portConstraint=eastwest;strokeColor=inherit;top=0;left=0;right=0;bottom=0;" vertex="1" parent="yk_zfGp0-UbUkJ6MIm1z-28">
          <mxGeometry y="90" width="320" height="30" as="geometry" />
        </mxCell>
        <mxCell id="yk_zfGp0-UbUkJ6MIm1z-36" value="" style="shape=partialRectangle;overflow=hidden;connectable=0;fillColor=none;strokeColor=inherit;top=0;left=0;bottom=0;right=0;" vertex="1" parent="yk_zfGp0-UbUkJ6MIm1z-35">
          <mxGeometry width="30" height="30" as="geometry">
            <mxRectangle width="30" height="30" as="alternateBounds" />
          </mxGeometry>
        </mxCell>
        <mxCell id="yk_zfGp0-UbUkJ6MIm1z-37" value="end_date DATE NOT NULL -- End date of the season" style="shape=partialRectangle;overflow=hidden;connectable=0;fillColor=none;align=left;strokeColor=inherit;top=0;left=0;bottom=0;right=0;spacingLeft=6;" vertex="1" parent="yk_zfGp0-UbUkJ6MIm1z-35">
          <mxGeometry x="30" width="290" height="30" as="geometry">
            <mxRectangle width="290" height="30" as="alternateBounds" />
          </mxGeometry>
        </mxCell>
        <mxCell id="yk_zfGp0-UbUkJ6MIm1z-38" value="Matches" style="shape=table;startSize=30;container=1;collapsible=1;childLayout=tableLayout;fixedRows=1;rowLines=0;fontStyle=1;align=center;resizeLast=1;" vertex="1" parent="1">
          <mxGeometry x="-640" y="440" width="320" height="330" as="geometry" />
        </mxCell>
        <mxCell id="yk_zfGp0-UbUkJ6MIm1z-39" value="" style="shape=tableRow;horizontal=0;startSize=0;swimlaneHead=0;swimlaneBody=0;fillColor=none;collapsible=0;dropTarget=0;points=[[0,0.5],[1,0.5]];portConstraint=eastwest;strokeColor=inherit;top=0;left=0;right=0;bottom=1;" vertex="1" parent="yk_zfGp0-UbUkJ6MIm1z-38">
          <mxGeometry y="30" width="320" height="30" as="geometry" />
        </mxCell>
        <mxCell id="yk_zfGp0-UbUkJ6MIm1z-40" value="PK" style="shape=partialRectangle;overflow=hidden;connectable=0;fillColor=none;strokeColor=inherit;top=0;left=0;bottom=0;right=0;fontStyle=1;" vertex="1" parent="yk_zfGp0-UbUkJ6MIm1z-39">
          <mxGeometry width="30" height="30" as="geometry">
            <mxRectangle width="30" height="30" as="alternateBounds" />
          </mxGeometry>
        </mxCell>
        <mxCell id="yk_zfGp0-UbUkJ6MIm1z-41" value="season_id INT, -- ID of the season" style="shape=partialRectangle;overflow=hidden;connectable=0;fillColor=none;align=left;strokeColor=inherit;top=0;left=0;bottom=0;right=0;spacingLeft=6;fontStyle=5;" vertex="1" parent="yk_zfGp0-UbUkJ6MIm1z-39">
          <mxGeometry x="30" width="290" height="30" as="geometry">
            <mxRectangle width="290" height="30" as="alternateBounds" />
          </mxGeometry>
        </mxCell>
        <mxCell id="yk_zfGp0-UbUkJ6MIm1z-42" value="" style="shape=tableRow;horizontal=0;startSize=0;swimlaneHead=0;swimlaneBody=0;fillColor=none;collapsible=0;dropTarget=0;points=[[0,0.5],[1,0.5]];portConstraint=eastwest;strokeColor=inherit;top=0;left=0;right=0;bottom=1;" vertex="1" parent="yk_zfGp0-UbUkJ6MIm1z-38">
          <mxGeometry y="60" width="320" height="30" as="geometry" />
        </mxCell>
        <mxCell id="yk_zfGp0-UbUkJ6MIm1z-43" value="PK" style="shape=partialRectangle;overflow=hidden;connectable=0;fillColor=none;strokeColor=inherit;top=0;left=0;bottom=0;right=0;fontStyle=1;" vertex="1" parent="yk_zfGp0-UbUkJ6MIm1z-42">
          <mxGeometry width="30" height="30" as="geometry">
            <mxRectangle width="30" height="30" as="alternateBounds" />
          </mxGeometry>
        </mxCell>
        <mxCell id="yk_zfGp0-UbUkJ6MIm1z-44" value="referee_id INT, -- ID of the referee" style="shape=partialRectangle;overflow=hidden;connectable=0;fillColor=none;align=left;strokeColor=inherit;top=0;left=0;bottom=0;right=0;spacingLeft=6;fontStyle=5;" vertex="1" parent="yk_zfGp0-UbUkJ6MIm1z-42">
          <mxGeometry x="30" width="290" height="30" as="geometry">
            <mxRectangle width="290" height="30" as="alternateBounds" />
          </mxGeometry>
        </mxCell>
        <mxCell id="yk_zfGp0-UbUkJ6MIm1z-45" value="" style="shape=tableRow;horizontal=0;startSize=0;swimlaneHead=0;swimlaneBody=0;fillColor=none;collapsible=0;dropTarget=0;points=[[0,0.5],[1,0.5]];portConstraint=eastwest;strokeColor=inherit;top=0;left=0;right=0;bottom=1;" vertex="1" parent="yk_zfGp0-UbUkJ6MIm1z-38">
          <mxGeometry y="90" width="320" height="30" as="geometry" />
        </mxCell>
        <mxCell id="yk_zfGp0-UbUkJ6MIm1z-46" value="PK" style="shape=partialRectangle;overflow=hidden;connectable=0;fillColor=none;strokeColor=inherit;top=0;left=0;bottom=0;right=0;fontStyle=1;" vertex="1" parent="yk_zfGp0-UbUkJ6MIm1z-45">
          <mxGeometry width="30" height="30" as="geometry">
            <mxRectangle width="30" height="30" as="alternateBounds" />
          </mxGeometry>
        </mxCell>
        <mxCell id="yk_zfGp0-UbUkJ6MIm1z-47" value="match_id INT , -- Unique identifier for each match" style="shape=partialRectangle;overflow=hidden;connectable=0;fillColor=none;align=left;strokeColor=inherit;top=0;left=0;bottom=0;right=0;spacingLeft=6;fontStyle=5;" vertex="1" parent="yk_zfGp0-UbUkJ6MIm1z-45">
          <mxGeometry x="30" width="290" height="30" as="geometry">
            <mxRectangle width="290" height="30" as="alternateBounds" />
          </mxGeometry>
        </mxCell>
        <mxCell id="yk_zfGp0-UbUkJ6MIm1z-48" value="" style="shape=tableRow;horizontal=0;startSize=0;swimlaneHead=0;swimlaneBody=0;fillColor=none;collapsible=0;dropTarget=0;points=[[0,0.5],[1,0.5]];portConstraint=eastwest;strokeColor=inherit;top=0;left=0;right=0;bottom=0;" vertex="1" parent="yk_zfGp0-UbUkJ6MIm1z-38">
          <mxGeometry y="120" width="320" height="30" as="geometry" />
        </mxCell>
        <mxCell id="yk_zfGp0-UbUkJ6MIm1z-49" value="" style="shape=partialRectangle;overflow=hidden;connectable=0;fillColor=none;strokeColor=inherit;top=0;left=0;bottom=0;right=0;" vertex="1" parent="yk_zfGp0-UbUkJ6MIm1z-48">
          <mxGeometry width="30" height="30" as="geometry">
            <mxRectangle width="30" height="30" as="alternateBounds" />
          </mxGeometry>
        </mxCell>
        <mxCell id="yk_zfGp0-UbUkJ6MIm1z-50" value="team1_id INT, -- ID of the first team" style="shape=partialRectangle;overflow=hidden;connectable=0;fillColor=none;align=left;strokeColor=inherit;top=0;left=0;bottom=0;right=0;spacingLeft=6;" vertex="1" parent="yk_zfGp0-UbUkJ6MIm1z-48">
          <mxGeometry x="30" width="290" height="30" as="geometry">
            <mxRectangle width="290" height="30" as="alternateBounds" />
          </mxGeometry>
        </mxCell>
        <mxCell id="yk_zfGp0-UbUkJ6MIm1z-51" value="" style="shape=tableRow;horizontal=0;startSize=0;swimlaneHead=0;swimlaneBody=0;fillColor=none;collapsible=0;dropTarget=0;points=[[0,0.5],[1,0.5]];portConstraint=eastwest;strokeColor=inherit;top=0;left=0;right=0;bottom=0;" vertex="1" parent="yk_zfGp0-UbUkJ6MIm1z-38">
          <mxGeometry y="150" width="320" height="30" as="geometry" />
        </mxCell>
        <mxCell id="yk_zfGp0-UbUkJ6MIm1z-52" value="" style="shape=partialRectangle;overflow=hidden;connectable=0;fillColor=none;strokeColor=inherit;top=0;left=0;bottom=0;right=0;" vertex="1" parent="yk_zfGp0-UbUkJ6MIm1z-51">
          <mxGeometry width="30" height="30" as="geometry">
            <mxRectangle width="30" height="30" as="alternateBounds" />
          </mxGeometry>
        </mxCell>
        <mxCell id="yk_zfGp0-UbUkJ6MIm1z-53" value="team2_id INT, -- ID of the second team" style="shape=partialRectangle;overflow=hidden;connectable=0;fillColor=none;align=left;strokeColor=inherit;top=0;left=0;bottom=0;right=0;spacingLeft=6;" vertex="1" parent="yk_zfGp0-UbUkJ6MIm1z-51">
          <mxGeometry x="30" width="290" height="30" as="geometry">
            <mxRectangle width="290" height="30" as="alternateBounds" />
          </mxGeometry>
        </mxCell>
        <mxCell id="yk_zfGp0-UbUkJ6MIm1z-54" value="" style="shape=tableRow;horizontal=0;startSize=0;swimlaneHead=0;swimlaneBody=0;fillColor=none;collapsible=0;dropTarget=0;points=[[0,0.5],[1,0.5]];portConstraint=eastwest;strokeColor=inherit;top=0;left=0;right=0;bottom=0;" vertex="1" parent="yk_zfGp0-UbUkJ6MIm1z-38">
          <mxGeometry y="180" width="320" height="30" as="geometry" />
        </mxCell>
        <mxCell id="yk_zfGp0-UbUkJ6MIm1z-55" value="" style="shape=partialRectangle;overflow=hidden;connectable=0;fillColor=none;strokeColor=inherit;top=0;left=0;bottom=0;right=0;" vertex="1" parent="yk_zfGp0-UbUkJ6MIm1z-54">
          <mxGeometry width="30" height="30" as="geometry">
            <mxRectangle width="30" height="30" as="alternateBounds" />
          </mxGeometry>
        </mxCell>
        <mxCell id="yk_zfGp0-UbUkJ6MIm1z-56" value="match_date DATE NOT NULL, -- Date of the match" style="shape=partialRectangle;overflow=hidden;connectable=0;fillColor=none;align=left;strokeColor=inherit;top=0;left=0;bottom=0;right=0;spacingLeft=6;" vertex="1" parent="yk_zfGp0-UbUkJ6MIm1z-54">
          <mxGeometry x="30" width="290" height="30" as="geometry">
            <mxRectangle width="290" height="30" as="alternateBounds" />
          </mxGeometry>
        </mxCell>
        <mxCell id="yk_zfGp0-UbUkJ6MIm1z-57" value="" style="shape=tableRow;horizontal=0;startSize=0;swimlaneHead=0;swimlaneBody=0;fillColor=none;collapsible=0;dropTarget=0;points=[[0,0.5],[1,0.5]];portConstraint=eastwest;strokeColor=inherit;top=0;left=0;right=0;bottom=0;" vertex="1" parent="yk_zfGp0-UbUkJ6MIm1z-38">
          <mxGeometry y="210" width="320" height="30" as="geometry" />
        </mxCell>
        <mxCell id="yk_zfGp0-UbUkJ6MIm1z-58" value="" style="shape=partialRectangle;overflow=hidden;connectable=0;fillColor=none;strokeColor=inherit;top=0;left=0;bottom=0;right=0;" vertex="1" parent="yk_zfGp0-UbUkJ6MIm1z-57">
          <mxGeometry width="30" height="30" as="geometry">
            <mxRectangle width="30" height="30" as="alternateBounds" />
          </mxGeometry>
        </mxCell>
        <mxCell id="yk_zfGp0-UbUkJ6MIm1z-59" value="FOREIGN KEY (team1_id) REFERENCES Teams(team_id) ON DELETE SET NULL, -- Establish a relationship with the &quot;Teams&quot; table" style="shape=partialRectangle;overflow=hidden;connectable=0;fillColor=none;align=left;strokeColor=inherit;top=0;left=0;bottom=0;right=0;spacingLeft=6;" vertex="1" parent="yk_zfGp0-UbUkJ6MIm1z-57">
          <mxGeometry x="30" width="290" height="30" as="geometry">
            <mxRectangle width="290" height="30" as="alternateBounds" />
          </mxGeometry>
        </mxCell>
        <mxCell id="yk_zfGp0-UbUkJ6MIm1z-60" value="" style="shape=tableRow;horizontal=0;startSize=0;swimlaneHead=0;swimlaneBody=0;fillColor=none;collapsible=0;dropTarget=0;points=[[0,0.5],[1,0.5]];portConstraint=eastwest;strokeColor=inherit;top=0;left=0;right=0;bottom=0;" vertex="1" parent="yk_zfGp0-UbUkJ6MIm1z-38">
          <mxGeometry y="240" width="320" height="30" as="geometry" />
        </mxCell>
        <mxCell id="yk_zfGp0-UbUkJ6MIm1z-61" value="" style="shape=partialRectangle;overflow=hidden;connectable=0;fillColor=none;strokeColor=inherit;top=0;left=0;bottom=0;right=0;" vertex="1" parent="yk_zfGp0-UbUkJ6MIm1z-60">
          <mxGeometry width="30" height="30" as="geometry">
            <mxRectangle width="30" height="30" as="alternateBounds" />
          </mxGeometry>
        </mxCell>
        <mxCell id="yk_zfGp0-UbUkJ6MIm1z-62" value="FOREIGN KEY (team2_id) REFERENCES Teams(team_id) ON DELETE SET NULL, -- Establish a relationship with the &quot;Teams&quot; table" style="shape=partialRectangle;overflow=hidden;connectable=0;fillColor=none;align=left;strokeColor=inherit;top=0;left=0;bottom=0;right=0;spacingLeft=6;" vertex="1" parent="yk_zfGp0-UbUkJ6MIm1z-60">
          <mxGeometry x="30" width="290" height="30" as="geometry">
            <mxRectangle width="290" height="30" as="alternateBounds" />
          </mxGeometry>
        </mxCell>
        <mxCell id="yk_zfGp0-UbUkJ6MIm1z-63" value="" style="shape=tableRow;horizontal=0;startSize=0;swimlaneHead=0;swimlaneBody=0;fillColor=none;collapsible=0;dropTarget=0;points=[[0,0.5],[1,0.5]];portConstraint=eastwest;strokeColor=inherit;top=0;left=0;right=0;bottom=0;" vertex="1" parent="yk_zfGp0-UbUkJ6MIm1z-38">
          <mxGeometry y="270" width="320" height="30" as="geometry" />
        </mxCell>
        <mxCell id="yk_zfGp0-UbUkJ6MIm1z-64" value="" style="shape=partialRectangle;overflow=hidden;connectable=0;fillColor=none;strokeColor=inherit;top=0;left=0;bottom=0;right=0;" vertex="1" parent="yk_zfGp0-UbUkJ6MIm1z-63">
          <mxGeometry width="30" height="30" as="geometry">
            <mxRectangle width="30" height="30" as="alternateBounds" />
          </mxGeometry>
        </mxCell>
        <mxCell id="yk_zfGp0-UbUkJ6MIm1z-65" value="FOREIGN KEY (referee_id) REFERENCES Referees(referee_id) ON DELETE SET NULL, -- Establish a relationship with the &quot;Referees&quot; table" style="shape=partialRectangle;overflow=hidden;connectable=0;fillColor=none;align=left;strokeColor=inherit;top=0;left=0;bottom=0;right=0;spacingLeft=6;" vertex="1" parent="yk_zfGp0-UbUkJ6MIm1z-63">
          <mxGeometry x="30" width="290" height="30" as="geometry">
            <mxRectangle width="290" height="30" as="alternateBounds" />
          </mxGeometry>
        </mxCell>
        <mxCell id="yk_zfGp0-UbUkJ6MIm1z-66" value="" style="shape=tableRow;horizontal=0;startSize=0;swimlaneHead=0;swimlaneBody=0;fillColor=none;collapsible=0;dropTarget=0;points=[[0,0.5],[1,0.5]];portConstraint=eastwest;strokeColor=inherit;top=0;left=0;right=0;bottom=0;" vertex="1" parent="yk_zfGp0-UbUkJ6MIm1z-38">
          <mxGeometry y="300" width="320" height="30" as="geometry" />
        </mxCell>
        <mxCell id="yk_zfGp0-UbUkJ6MIm1z-67" value="" style="shape=partialRectangle;overflow=hidden;connectable=0;fillColor=none;strokeColor=inherit;top=0;left=0;bottom=0;right=0;" vertex="1" parent="yk_zfGp0-UbUkJ6MIm1z-66">
          <mxGeometry width="30" height="30" as="geometry">
            <mxRectangle width="30" height="30" as="alternateBounds" />
          </mxGeometry>
        </mxCell>
        <mxCell id="yk_zfGp0-UbUkJ6MIm1z-68" value="FOREIGN KEY (season_id) REFERENCES Seasons(season_id) ON DELETE SET NULL -- Establish a relationship with the &quot;Seasons&quot; table" style="shape=partialRectangle;overflow=hidden;connectable=0;fillColor=none;align=left;strokeColor=inherit;top=0;left=0;bottom=0;right=0;spacingLeft=6;" vertex="1" parent="yk_zfGp0-UbUkJ6MIm1z-66">
          <mxGeometry x="30" width="290" height="30" as="geometry">
            <mxRectangle width="290" height="30" as="alternateBounds" />
          </mxGeometry>
        </mxCell>
        <mxCell id="yk_zfGp0-UbUkJ6MIm1z-69" value="Goals" style="shape=table;startSize=30;container=1;collapsible=1;childLayout=tableLayout;fixedRows=1;rowLines=0;fontStyle=1;align=center;resizeLast=1;" vertex="1" parent="1">
          <mxGeometry x="-290" y="150" width="320" height="210" as="geometry" />
        </mxCell>
        <mxCell id="yk_zfGp0-UbUkJ6MIm1z-70" value="" style="shape=tableRow;horizontal=0;startSize=0;swimlaneHead=0;swimlaneBody=0;fillColor=none;collapsible=0;dropTarget=0;points=[[0,0.5],[1,0.5]];portConstraint=eastwest;strokeColor=inherit;top=0;left=0;right=0;bottom=1;" vertex="1" parent="yk_zfGp0-UbUkJ6MIm1z-69">
          <mxGeometry y="30" width="320" height="30" as="geometry" />
        </mxCell>
        <mxCell id="yk_zfGp0-UbUkJ6MIm1z-71" value="PK" style="shape=partialRectangle;overflow=hidden;connectable=0;fillColor=none;strokeColor=inherit;top=0;left=0;bottom=0;right=0;fontStyle=1;" vertex="1" parent="yk_zfGp0-UbUkJ6MIm1z-70">
          <mxGeometry width="30" height="30" as="geometry">
            <mxRectangle width="30" height="30" as="alternateBounds" />
          </mxGeometry>
        </mxCell>
        <mxCell id="yk_zfGp0-UbUkJ6MIm1z-72" value="match_id INT, -- ID of the match the goal was scored in" style="shape=partialRectangle;overflow=hidden;connectable=0;fillColor=none;align=left;strokeColor=inherit;top=0;left=0;bottom=0;right=0;spacingLeft=6;fontStyle=5;" vertex="1" parent="yk_zfGp0-UbUkJ6MIm1z-70">
          <mxGeometry x="30" width="290" height="30" as="geometry">
            <mxRectangle width="290" height="30" as="alternateBounds" />
          </mxGeometry>
        </mxCell>
        <mxCell id="yk_zfGp0-UbUkJ6MIm1z-73" value="" style="shape=tableRow;horizontal=0;startSize=0;swimlaneHead=0;swimlaneBody=0;fillColor=none;collapsible=0;dropTarget=0;points=[[0,0.5],[1,0.5]];portConstraint=eastwest;strokeColor=inherit;top=0;left=0;right=0;bottom=1;" vertex="1" parent="yk_zfGp0-UbUkJ6MIm1z-69">
          <mxGeometry y="60" width="320" height="30" as="geometry" />
        </mxCell>
        <mxCell id="yk_zfGp0-UbUkJ6MIm1z-74" value="PK" style="shape=partialRectangle;overflow=hidden;connectable=0;fillColor=none;strokeColor=inherit;top=0;left=0;bottom=0;right=0;fontStyle=1;" vertex="1" parent="yk_zfGp0-UbUkJ6MIm1z-73">
          <mxGeometry width="30" height="30" as="geometry">
            <mxRectangle width="30" height="30" as="alternateBounds" />
          </mxGeometry>
        </mxCell>
        <mxCell id="yk_zfGp0-UbUkJ6MIm1z-75" value="player_id INT, -- ID of the player who scored the goal" style="shape=partialRectangle;overflow=hidden;connectable=0;fillColor=none;align=left;strokeColor=inherit;top=0;left=0;bottom=0;right=0;spacingLeft=6;fontStyle=5;" vertex="1" parent="yk_zfGp0-UbUkJ6MIm1z-73">
          <mxGeometry x="30" width="290" height="30" as="geometry">
            <mxRectangle width="290" height="30" as="alternateBounds" />
          </mxGeometry>
        </mxCell>
        <mxCell id="yk_zfGp0-UbUkJ6MIm1z-76" value="" style="shape=tableRow;horizontal=0;startSize=0;swimlaneHead=0;swimlaneBody=0;fillColor=none;collapsible=0;dropTarget=0;points=[[0,0.5],[1,0.5]];portConstraint=eastwest;strokeColor=inherit;top=0;left=0;right=0;bottom=1;" vertex="1" parent="yk_zfGp0-UbUkJ6MIm1z-69">
          <mxGeometry y="90" width="320" height="30" as="geometry" />
        </mxCell>
        <mxCell id="yk_zfGp0-UbUkJ6MIm1z-77" value="PK" style="shape=partialRectangle;overflow=hidden;connectable=0;fillColor=none;strokeColor=inherit;top=0;left=0;bottom=0;right=0;fontStyle=1;" vertex="1" parent="yk_zfGp0-UbUkJ6MIm1z-76">
          <mxGeometry width="30" height="30" as="geometry">
            <mxRectangle width="30" height="30" as="alternateBounds" />
          </mxGeometry>
        </mxCell>
        <mxCell id="yk_zfGp0-UbUkJ6MIm1z-78" value="goal_id INT , -- Unique identifier for each goal" style="shape=partialRectangle;overflow=hidden;connectable=0;fillColor=none;align=left;strokeColor=inherit;top=0;left=0;bottom=0;right=0;spacingLeft=6;fontStyle=5;" vertex="1" parent="yk_zfGp0-UbUkJ6MIm1z-76">
          <mxGeometry x="30" width="290" height="30" as="geometry">
            <mxRectangle width="290" height="30" as="alternateBounds" />
          </mxGeometry>
        </mxCell>
        <mxCell id="yk_zfGp0-UbUkJ6MIm1z-79" value="" style="shape=tableRow;horizontal=0;startSize=0;swimlaneHead=0;swimlaneBody=0;fillColor=none;collapsible=0;dropTarget=0;points=[[0,0.5],[1,0.5]];portConstraint=eastwest;strokeColor=inherit;top=0;left=0;right=0;bottom=0;" vertex="1" parent="yk_zfGp0-UbUkJ6MIm1z-69">
          <mxGeometry y="120" width="320" height="30" as="geometry" />
        </mxCell>
        <mxCell id="yk_zfGp0-UbUkJ6MIm1z-80" value="" style="shape=partialRectangle;overflow=hidden;connectable=0;fillColor=none;strokeColor=inherit;top=0;left=0;bottom=0;right=0;" vertex="1" parent="yk_zfGp0-UbUkJ6MIm1z-79">
          <mxGeometry width="30" height="30" as="geometry">
            <mxRectangle width="30" height="30" as="alternateBounds" />
          </mxGeometry>
        </mxCell>
        <mxCell id="yk_zfGp0-UbUkJ6MIm1z-81" value="goal_time TIME NOT NULL, -- Time of the goal" style="shape=partialRectangle;overflow=hidden;connectable=0;fillColor=none;align=left;strokeColor=inherit;top=0;left=0;bottom=0;right=0;spacingLeft=6;" vertex="1" parent="yk_zfGp0-UbUkJ6MIm1z-79">
          <mxGeometry x="30" width="290" height="30" as="geometry">
            <mxRectangle width="290" height="30" as="alternateBounds" />
          </mxGeometry>
        </mxCell>
        <mxCell id="yk_zfGp0-UbUkJ6MIm1z-82" value="" style="shape=tableRow;horizontal=0;startSize=0;swimlaneHead=0;swimlaneBody=0;fillColor=none;collapsible=0;dropTarget=0;points=[[0,0.5],[1,0.5]];portConstraint=eastwest;strokeColor=inherit;top=0;left=0;right=0;bottom=0;" vertex="1" parent="yk_zfGp0-UbUkJ6MIm1z-69">
          <mxGeometry y="150" width="320" height="30" as="geometry" />
        </mxCell>
        <mxCell id="yk_zfGp0-UbUkJ6MIm1z-83" value="" style="shape=partialRectangle;overflow=hidden;connectable=0;fillColor=none;strokeColor=inherit;top=0;left=0;bottom=0;right=0;" vertex="1" parent="yk_zfGp0-UbUkJ6MIm1z-82">
          <mxGeometry width="30" height="30" as="geometry">
            <mxRectangle width="30" height="30" as="alternateBounds" />
          </mxGeometry>
        </mxCell>
        <mxCell id="yk_zfGp0-UbUkJ6MIm1z-84" value="FOREIGN KEY (player_id) REFERENCES Players(player_id) ON DELETE SET NULL, -- Establish a relationship with the &quot;Players&quot; table" style="shape=partialRectangle;overflow=hidden;connectable=0;fillColor=none;align=left;strokeColor=inherit;top=0;left=0;bottom=0;right=0;spacingLeft=6;" vertex="1" parent="yk_zfGp0-UbUkJ6MIm1z-82">
          <mxGeometry x="30" width="290" height="30" as="geometry">
            <mxRectangle width="290" height="30" as="alternateBounds" />
          </mxGeometry>
        </mxCell>
        <mxCell id="yk_zfGp0-UbUkJ6MIm1z-85" value="" style="shape=tableRow;horizontal=0;startSize=0;swimlaneHead=0;swimlaneBody=0;fillColor=none;collapsible=0;dropTarget=0;points=[[0,0.5],[1,0.5]];portConstraint=eastwest;strokeColor=inherit;top=0;left=0;right=0;bottom=0;" vertex="1" parent="yk_zfGp0-UbUkJ6MIm1z-69">
          <mxGeometry y="180" width="320" height="30" as="geometry" />
        </mxCell>
        <mxCell id="yk_zfGp0-UbUkJ6MIm1z-86" value="" style="shape=partialRectangle;overflow=hidden;connectable=0;fillColor=none;strokeColor=inherit;top=0;left=0;bottom=0;right=0;" vertex="1" parent="yk_zfGp0-UbUkJ6MIm1z-85">
          <mxGeometry width="30" height="30" as="geometry">
            <mxRectangle width="30" height="30" as="alternateBounds" />
          </mxGeometry>
        </mxCell>
        <mxCell id="yk_zfGp0-UbUkJ6MIm1z-87" value="FOREIGN KEY (match_id) REFERENCES Matches(match_id) ON DELETE SET NULL -- Establish a relationship with the &quot;Matches&quot; table" style="shape=partialRectangle;overflow=hidden;connectable=0;fillColor=none;align=left;strokeColor=inherit;top=0;left=0;bottom=0;right=0;spacingLeft=6;" vertex="1" parent="yk_zfGp0-UbUkJ6MIm1z-85">
          <mxGeometry x="30" width="290" height="30" as="geometry">
            <mxRectangle width="290" height="30" as="alternateBounds" />
          </mxGeometry>
        </mxCell>
        <mxCell id="yk_zfGp0-UbUkJ6MIm1z-88" value="Lineups" style="shape=table;startSize=30;container=1;collapsible=1;childLayout=tableLayout;fixedRows=1;rowLines=0;fontStyle=1;align=center;resizeLast=1;" vertex="1" parent="1">
          <mxGeometry x="-290" y="390" width="320" height="210" as="geometry" />
        </mxCell>
        <mxCell id="yk_zfGp0-UbUkJ6MIm1z-89" value="" style="shape=tableRow;horizontal=0;startSize=0;swimlaneHead=0;swimlaneBody=0;fillColor=none;collapsible=0;dropTarget=0;points=[[0,0.5],[1,0.5]];portConstraint=eastwest;strokeColor=inherit;top=0;left=0;right=0;bottom=1;" vertex="1" parent="yk_zfGp0-UbUkJ6MIm1z-88">
          <mxGeometry y="30" width="320" height="30" as="geometry" />
        </mxCell>
        <mxCell id="yk_zfGp0-UbUkJ6MIm1z-90" value="PK" style="shape=partialRectangle;overflow=hidden;connectable=0;fillColor=none;strokeColor=inherit;top=0;left=0;bottom=0;right=0;fontStyle=1;" vertex="1" parent="yk_zfGp0-UbUkJ6MIm1z-89">
          <mxGeometry width="30" height="30" as="geometry">
            <mxRectangle width="30" height="30" as="alternateBounds" />
          </mxGeometry>
        </mxCell>
        <mxCell id="yk_zfGp0-UbUkJ6MIm1z-91" value="team_id INT, -- ID of the team" style="shape=partialRectangle;overflow=hidden;connectable=0;fillColor=none;align=left;strokeColor=inherit;top=0;left=0;bottom=0;right=0;spacingLeft=6;fontStyle=5;" vertex="1" parent="yk_zfGp0-UbUkJ6MIm1z-89">
          <mxGeometry x="30" width="290" height="30" as="geometry">
            <mxRectangle width="290" height="30" as="alternateBounds" />
          </mxGeometry>
        </mxCell>
        <mxCell id="yk_zfGp0-UbUkJ6MIm1z-92" value="" style="shape=tableRow;horizontal=0;startSize=0;swimlaneHead=0;swimlaneBody=0;fillColor=none;collapsible=0;dropTarget=0;points=[[0,0.5],[1,0.5]];portConstraint=eastwest;strokeColor=inherit;top=0;left=0;right=0;bottom=1;" vertex="1" parent="yk_zfGp0-UbUkJ6MIm1z-88">
          <mxGeometry y="60" width="320" height="30" as="geometry" />
        </mxCell>
        <mxCell id="yk_zfGp0-UbUkJ6MIm1z-93" value="PK" style="shape=partialRectangle;overflow=hidden;connectable=0;fillColor=none;strokeColor=inherit;top=0;left=0;bottom=0;right=0;fontStyle=1;" vertex="1" parent="yk_zfGp0-UbUkJ6MIm1z-92">
          <mxGeometry width="30" height="30" as="geometry">
            <mxRectangle width="30" height="30" as="alternateBounds" />
          </mxGeometry>
        </mxCell>
        <mxCell id="yk_zfGp0-UbUkJ6MIm1z-94" value="match_id INT, -- ID of the match" style="shape=partialRectangle;overflow=hidden;connectable=0;fillColor=none;align=left;strokeColor=inherit;top=0;left=0;bottom=0;right=0;spacingLeft=6;fontStyle=5;" vertex="1" parent="yk_zfGp0-UbUkJ6MIm1z-92">
          <mxGeometry x="30" width="290" height="30" as="geometry">
            <mxRectangle width="290" height="30" as="alternateBounds" />
          </mxGeometry>
        </mxCell>
        <mxCell id="yk_zfGp0-UbUkJ6MIm1z-95" value="" style="shape=tableRow;horizontal=0;startSize=0;swimlaneHead=0;swimlaneBody=0;fillColor=none;collapsible=0;dropTarget=0;points=[[0,0.5],[1,0.5]];portConstraint=eastwest;strokeColor=inherit;top=0;left=0;right=0;bottom=1;" vertex="1" parent="yk_zfGp0-UbUkJ6MIm1z-88">
          <mxGeometry y="90" width="320" height="30" as="geometry" />
        </mxCell>
        <mxCell id="yk_zfGp0-UbUkJ6MIm1z-96" value="PK" style="shape=partialRectangle;overflow=hidden;connectable=0;fillColor=none;strokeColor=inherit;top=0;left=0;bottom=0;right=0;fontStyle=1;" vertex="1" parent="yk_zfGp0-UbUkJ6MIm1z-95">
          <mxGeometry width="30" height="30" as="geometry">
            <mxRectangle width="30" height="30" as="alternateBounds" />
          </mxGeometry>
        </mxCell>
        <mxCell id="yk_zfGp0-UbUkJ6MIm1z-97" value="player_id INT, -- ID of the player" style="shape=partialRectangle;overflow=hidden;connectable=0;fillColor=none;align=left;strokeColor=inherit;top=0;left=0;bottom=0;right=0;spacingLeft=6;fontStyle=5;" vertex="1" parent="yk_zfGp0-UbUkJ6MIm1z-95">
          <mxGeometry x="30" width="290" height="30" as="geometry">
            <mxRectangle width="290" height="30" as="alternateBounds" />
          </mxGeometry>
        </mxCell>
        <mxCell id="yk_zfGp0-UbUkJ6MIm1z-98" value="" style="shape=tableRow;horizontal=0;startSize=0;swimlaneHead=0;swimlaneBody=0;fillColor=none;collapsible=0;dropTarget=0;points=[[0,0.5],[1,0.5]];portConstraint=eastwest;strokeColor=inherit;top=0;left=0;right=0;bottom=0;" vertex="1" parent="yk_zfGp0-UbUkJ6MIm1z-88">
          <mxGeometry y="120" width="320" height="30" as="geometry" />
        </mxCell>
        <mxCell id="yk_zfGp0-UbUkJ6MIm1z-99" value="" style="shape=partialRectangle;overflow=hidden;connectable=0;fillColor=none;strokeColor=inherit;top=0;left=0;bottom=0;right=0;" vertex="1" parent="yk_zfGp0-UbUkJ6MIm1z-98">
          <mxGeometry width="30" height="30" as="geometry">
            <mxRectangle width="30" height="30" as="alternateBounds" />
          </mxGeometry>
        </mxCell>
        <mxCell id="yk_zfGp0-UbUkJ6MIm1z-100" value="FOREIGN KEY (player_id) REFERENCES Players(player_id) ON DELETE SET NULL, -- Establish a relationship with the &quot;Players&quot; table" style="shape=partialRectangle;overflow=hidden;connectable=0;fillColor=none;align=left;strokeColor=inherit;top=0;left=0;bottom=0;right=0;spacingLeft=6;" vertex="1" parent="yk_zfGp0-UbUkJ6MIm1z-98">
          <mxGeometry x="30" width="290" height="30" as="geometry">
            <mxRectangle width="290" height="30" as="alternateBounds" />
          </mxGeometry>
        </mxCell>
        <mxCell id="yk_zfGp0-UbUkJ6MIm1z-101" value="" style="shape=tableRow;horizontal=0;startSize=0;swimlaneHead=0;swimlaneBody=0;fillColor=none;collapsible=0;dropTarget=0;points=[[0,0.5],[1,0.5]];portConstraint=eastwest;strokeColor=inherit;top=0;left=0;right=0;bottom=0;" vertex="1" parent="yk_zfGp0-UbUkJ6MIm1z-88">
          <mxGeometry y="150" width="320" height="30" as="geometry" />
        </mxCell>
        <mxCell id="yk_zfGp0-UbUkJ6MIm1z-102" value="" style="shape=partialRectangle;overflow=hidden;connectable=0;fillColor=none;strokeColor=inherit;top=0;left=0;bottom=0;right=0;" vertex="1" parent="yk_zfGp0-UbUkJ6MIm1z-101">
          <mxGeometry width="30" height="30" as="geometry">
            <mxRectangle width="30" height="30" as="alternateBounds" />
          </mxGeometry>
        </mxCell>
        <mxCell id="yk_zfGp0-UbUkJ6MIm1z-103" value="FOREIGN KEY (match_id) REFERENCES Matches(match_id) ON DELETE SET NULL, -- Establish a relationship with the &quot;Matches&quot; table" style="shape=partialRectangle;overflow=hidden;connectable=0;fillColor=none;align=left;strokeColor=inherit;top=0;left=0;bottom=0;right=0;spacingLeft=6;" vertex="1" parent="yk_zfGp0-UbUkJ6MIm1z-101">
          <mxGeometry x="30" width="290" height="30" as="geometry">
            <mxRectangle width="290" height="30" as="alternateBounds" />
          </mxGeometry>
        </mxCell>
        <mxCell id="yk_zfGp0-UbUkJ6MIm1z-104" value="" style="shape=tableRow;horizontal=0;startSize=0;swimlaneHead=0;swimlaneBody=0;fillColor=none;collapsible=0;dropTarget=0;points=[[0,0.5],[1,0.5]];portConstraint=eastwest;strokeColor=inherit;top=0;left=0;right=0;bottom=0;" vertex="1" parent="yk_zfGp0-UbUkJ6MIm1z-88">
          <mxGeometry y="180" width="320" height="30" as="geometry" />
        </mxCell>
        <mxCell id="yk_zfGp0-UbUkJ6MIm1z-105" value="" style="shape=partialRectangle;overflow=hidden;connectable=0;fillColor=none;strokeColor=inherit;top=0;left=0;bottom=0;right=0;" vertex="1" parent="yk_zfGp0-UbUkJ6MIm1z-104">
          <mxGeometry width="30" height="30" as="geometry">
            <mxRectangle width="30" height="30" as="alternateBounds" />
          </mxGeometry>
        </mxCell>
        <mxCell id="yk_zfGp0-UbUkJ6MIm1z-106" value="FOREIGN KEY (team_id) REFERENCES Teams(team_id) ON DELETE SET NULL -- Establish a relationship with the &quot;Teams&quot; table" style="shape=partialRectangle;overflow=hidden;connectable=0;fillColor=none;align=left;strokeColor=inherit;top=0;left=0;bottom=0;right=0;spacingLeft=6;" vertex="1" parent="yk_zfGp0-UbUkJ6MIm1z-104">
          <mxGeometry x="30" width="290" height="30" as="geometry">
            <mxRectangle width="290" height="30" as="alternateBounds" />
          </mxGeometry>
        </mxCell>
        <mxCell id="yk_zfGp0-UbUkJ6MIm1z-107" value="Results" style="shape=table;startSize=30;container=1;collapsible=1;childLayout=tableLayout;fixedRows=1;rowLines=0;fontStyle=1;align=center;resizeLast=1;" vertex="1" parent="1">
          <mxGeometry x="1520" y="150" width="320" height="180" as="geometry" />
        </mxCell>
        <mxCell id="yk_zfGp0-UbUkJ6MIm1z-108" value="" style="shape=tableRow;horizontal=0;startSize=0;swimlaneHead=0;swimlaneBody=0;fillColor=none;collapsible=0;dropTarget=0;points=[[0,0.5],[1,0.5]];portConstraint=eastwest;strokeColor=inherit;top=0;left=0;right=0;bottom=1;" vertex="1" parent="yk_zfGp0-UbUkJ6MIm1z-107">
          <mxGeometry y="30" width="320" height="30" as="geometry" />
        </mxCell>
        <mxCell id="yk_zfGp0-UbUkJ6MIm1z-109" value="PK" style="shape=partialRectangle;overflow=hidden;connectable=0;fillColor=none;strokeColor=inherit;top=0;left=0;bottom=0;right=0;fontStyle=1;" vertex="1" parent="yk_zfGp0-UbUkJ6MIm1z-108">
          <mxGeometry width="30" height="30" as="geometry">
            <mxRectangle width="30" height="30" as="alternateBounds" />
          </mxGeometry>
        </mxCell>
        <mxCell id="yk_zfGp0-UbUkJ6MIm1z-110" value="match_id INT, -- ID of the match" style="shape=partialRectangle;overflow=hidden;connectable=0;fillColor=none;align=left;strokeColor=inherit;top=0;left=0;bottom=0;right=0;spacingLeft=6;fontStyle=5;" vertex="1" parent="yk_zfGp0-UbUkJ6MIm1z-108">
          <mxGeometry x="30" width="290" height="30" as="geometry">
            <mxRectangle width="290" height="30" as="alternateBounds" />
          </mxGeometry>
        </mxCell>
        <mxCell id="yk_zfGp0-UbUkJ6MIm1z-111" value="" style="shape=tableRow;horizontal=0;startSize=0;swimlaneHead=0;swimlaneBody=0;fillColor=none;collapsible=0;dropTarget=0;points=[[0,0.5],[1,0.5]];portConstraint=eastwest;strokeColor=inherit;top=0;left=0;right=0;bottom=1;" vertex="1" parent="yk_zfGp0-UbUkJ6MIm1z-107">
          <mxGeometry y="60" width="320" height="30" as="geometry" />
        </mxCell>
        <mxCell id="yk_zfGp0-UbUkJ6MIm1z-112" value="PK" style="shape=partialRectangle;overflow=hidden;connectable=0;fillColor=none;strokeColor=inherit;top=0;left=0;bottom=0;right=0;fontStyle=1;" vertex="1" parent="yk_zfGp0-UbUkJ6MIm1z-111">
          <mxGeometry width="30" height="30" as="geometry">
            <mxRectangle width="30" height="30" as="alternateBounds" />
          </mxGeometry>
        </mxCell>
        <mxCell id="yk_zfGp0-UbUkJ6MIm1z-113" value="team_id INT, -- ID of the team" style="shape=partialRectangle;overflow=hidden;connectable=0;fillColor=none;align=left;strokeColor=inherit;top=0;left=0;bottom=0;right=0;spacingLeft=6;fontStyle=5;" vertex="1" parent="yk_zfGp0-UbUkJ6MIm1z-111">
          <mxGeometry x="30" width="290" height="30" as="geometry">
            <mxRectangle width="290" height="30" as="alternateBounds" />
          </mxGeometry>
        </mxCell>
        <mxCell id="yk_zfGp0-UbUkJ6MIm1z-114" value="" style="shape=tableRow;horizontal=0;startSize=0;swimlaneHead=0;swimlaneBody=0;fillColor=none;collapsible=0;dropTarget=0;points=[[0,0.5],[1,0.5]];portConstraint=eastwest;strokeColor=inherit;top=0;left=0;right=0;bottom=0;" vertex="1" parent="yk_zfGp0-UbUkJ6MIm1z-107">
          <mxGeometry y="90" width="320" height="30" as="geometry" />
        </mxCell>
        <mxCell id="yk_zfGp0-UbUkJ6MIm1z-115" value="" style="shape=partialRectangle;overflow=hidden;connectable=0;fillColor=none;strokeColor=inherit;top=0;left=0;bottom=0;right=0;" vertex="1" parent="yk_zfGp0-UbUkJ6MIm1z-114">
          <mxGeometry width="30" height="30" as="geometry">
            <mxRectangle width="30" height="30" as="alternateBounds" />
          </mxGeometry>
        </mxCell>
        <mxCell id="yk_zfGp0-UbUkJ6MIm1z-116" value="result VARCHAR(10) NOT NULL, -- Result of the match (wins, loses, or draw)" style="shape=partialRectangle;overflow=hidden;connectable=0;fillColor=none;align=left;strokeColor=inherit;top=0;left=0;bottom=0;right=0;spacingLeft=6;" vertex="1" parent="yk_zfGp0-UbUkJ6MIm1z-114">
          <mxGeometry x="30" width="290" height="30" as="geometry">
            <mxRectangle width="290" height="30" as="alternateBounds" />
          </mxGeometry>
        </mxCell>
        <mxCell id="yk_zfGp0-UbUkJ6MIm1z-117" value="" style="shape=tableRow;horizontal=0;startSize=0;swimlaneHead=0;swimlaneBody=0;fillColor=none;collapsible=0;dropTarget=0;points=[[0,0.5],[1,0.5]];portConstraint=eastwest;strokeColor=inherit;top=0;left=0;right=0;bottom=0;" vertex="1" parent="yk_zfGp0-UbUkJ6MIm1z-107">
          <mxGeometry y="120" width="320" height="30" as="geometry" />
        </mxCell>
        <mxCell id="yk_zfGp0-UbUkJ6MIm1z-118" value="" style="shape=partialRectangle;overflow=hidden;connectable=0;fillColor=none;strokeColor=inherit;top=0;left=0;bottom=0;right=0;" vertex="1" parent="yk_zfGp0-UbUkJ6MIm1z-117">
          <mxGeometry width="30" height="30" as="geometry">
            <mxRectangle width="30" height="30" as="alternateBounds" />
          </mxGeometry>
        </mxCell>
        <mxCell id="yk_zfGp0-UbUkJ6MIm1z-119" value="FOREIGN KEY (team_id) REFERENCES Teams(team_id) ON DELETE SET NULL, -- Establish a relationship with the &quot;Teams&quot; table" style="shape=partialRectangle;overflow=hidden;connectable=0;fillColor=none;align=left;strokeColor=inherit;top=0;left=0;bottom=0;right=0;spacingLeft=6;" vertex="1" parent="yk_zfGp0-UbUkJ6MIm1z-117">
          <mxGeometry x="30" width="290" height="30" as="geometry">
            <mxRectangle width="290" height="30" as="alternateBounds" />
          </mxGeometry>
        </mxCell>
        <mxCell id="yk_zfGp0-UbUkJ6MIm1z-120" value="" style="shape=tableRow;horizontal=0;startSize=0;swimlaneHead=0;swimlaneBody=0;fillColor=none;collapsible=0;dropTarget=0;points=[[0,0.5],[1,0.5]];portConstraint=eastwest;strokeColor=inherit;top=0;left=0;right=0;bottom=0;" vertex="1" parent="yk_zfGp0-UbUkJ6MIm1z-107">
          <mxGeometry y="150" width="320" height="30" as="geometry" />
        </mxCell>
        <mxCell id="yk_zfGp0-UbUkJ6MIm1z-121" value="" style="shape=partialRectangle;overflow=hidden;connectable=0;fillColor=none;strokeColor=inherit;top=0;left=0;bottom=0;right=0;" vertex="1" parent="yk_zfGp0-UbUkJ6MIm1z-120">
          <mxGeometry width="30" height="30" as="geometry">
            <mxRectangle width="30" height="30" as="alternateBounds" />
          </mxGeometry>
        </mxCell>
        <mxCell id="yk_zfGp0-UbUkJ6MIm1z-122" value="FOREIGN KEY (match_id) REFERENCES Matches(match_id) ON DELETE SET NULL -- Establish a relationship with the &quot;Matches&quot; table" style="shape=partialRectangle;overflow=hidden;connectable=0;fillColor=none;align=left;strokeColor=inherit;top=0;left=0;bottom=0;right=0;spacingLeft=6;" vertex="1" parent="yk_zfGp0-UbUkJ6MIm1z-120">
          <mxGeometry x="30" width="290" height="30" as="geometry">
            <mxRectangle width="290" height="30" as="alternateBounds" />
          </mxGeometry>
        </mxCell>
        <mxCell id="yk_zfGp0-UbUkJ6MIm1z-123" value="" style="edgeStyle=entityRelationEdgeStyle;fontSize=12;html=1;endArrow=ERoneToMany;startArrow=ERoneToMany;rounded=0;entryX=1;entryY=0.5;entryDx=0;entryDy=0;exitX=0.005;exitY=0.32;exitDx=0;exitDy=0;exitPerimeter=0;fillColor=#e1d5e7;strokeColor=#9673a6;" edge="1" parent="1" source="yk_zfGp0-UbUkJ6MIm1z-89" target="yk_zfGp0-UbUkJ6MIm1z-2">
          <mxGeometry width="100" height="100" relative="1" as="geometry">
            <mxPoint x="-870" y="720" as="sourcePoint" />
            <mxPoint x="-770" y="620" as="targetPoint" />
            <Array as="points">
              <mxPoint x="-480" y="330" />
              <mxPoint x="-490" y="330" />
            </Array>
          </mxGeometry>
        </mxCell>
        <mxCell id="yk_zfGp0-UbUkJ6MIm1z-124" value="" style="edgeStyle=entityRelationEdgeStyle;fontSize=12;html=1;endArrow=ERoneToMany;startArrow=ERoneToMany;rounded=0;entryX=1.003;entryY=0.813;entryDx=0;entryDy=0;entryPerimeter=0;exitX=-0.009;exitY=0.72;exitDx=0;exitDy=0;exitPerimeter=0;fillColor=#d5e8d4;strokeColor=#82b366;" edge="1" parent="1" source="yk_zfGp0-UbUkJ6MIm1z-15" target="yk_zfGp0-UbUkJ6MIm1z-2">
          <mxGeometry width="100" height="100" relative="1" as="geometry">
            <mxPoint x="-860" y="730" as="sourcePoint" />
            <mxPoint x="-760" y="630" as="targetPoint" />
          </mxGeometry>
        </mxCell>
        <mxCell id="yk_zfGp0-UbUkJ6MIm1z-125" value="" style="edgeStyle=entityRelationEdgeStyle;fontSize=12;html=1;endArrow=ERoneToMany;startArrow=ERoneToMany;rounded=0;entryX=1;entryY=0.5;entryDx=0;entryDy=0;exitX=-0.001;exitY=0.293;exitDx=0;exitDy=0;exitPerimeter=0;fillColor=#f5f5f5;strokeColor=#666666;" edge="1" parent="1" source="yk_zfGp0-UbUkJ6MIm1z-54" target="yk_zfGp0-UbUkJ6MIm1z-5">
          <mxGeometry width="100" height="100" relative="1" as="geometry">
            <mxPoint x="-850" y="740" as="sourcePoint" />
            <mxPoint x="-750" y="640" as="targetPoint" />
          </mxGeometry>
        </mxCell>
        <mxCell id="yk_zfGp0-UbUkJ6MIm1z-126" value="" style="edgeStyle=entityRelationEdgeStyle;fontSize=12;html=1;endArrow=ERoneToMany;startArrow=ERoneToMany;rounded=0;entryX=1;entryY=0.5;entryDx=0;entryDy=0;exitX=-0.014;exitY=0.4;exitDx=0;exitDy=0;exitPerimeter=0;fillColor=#dae8fc;strokeColor=#6c8ebf;" edge="1" parent="1" source="yk_zfGp0-UbUkJ6MIm1z-60" target="yk_zfGp0-UbUkJ6MIm1z-22">
          <mxGeometry width="100" height="100" relative="1" as="geometry">
            <mxPoint x="-840" y="750" as="sourcePoint" />
            <mxPoint x="-740" y="650" as="targetPoint" />
          </mxGeometry>
        </mxCell>
        <mxCell id="yk_zfGp0-UbUkJ6MIm1z-127" value="" style="edgeStyle=entityRelationEdgeStyle;fontSize=12;html=1;endArrow=ERoneToMany;startArrow=ERoneToMany;rounded=0;exitX=0;exitY=0.5;exitDx=0;exitDy=0;entryX=1.011;entryY=0.227;entryDx=0;entryDy=0;entryPerimeter=0;fillColor=#f8cecc;strokeColor=#b85450;" edge="1" parent="1" source="yk_zfGp0-UbUkJ6MIm1z-92" target="yk_zfGp0-UbUkJ6MIm1z-18">
          <mxGeometry width="100" height="100" relative="1" as="geometry">
            <mxPoint x="-830" y="760" as="sourcePoint" />
            <mxPoint x="-320" y="346" as="targetPoint" />
            <Array as="points">
              <mxPoint x="-300" y="380" />
            </Array>
          </mxGeometry>
        </mxCell>
        <mxCell id="yk_zfGp0-UbUkJ6MIm1z-128" value="" style="edgeStyle=entityRelationEdgeStyle;fontSize=12;html=1;endArrow=ERoneToMany;startArrow=ERoneToMany;rounded=0;entryX=1.004;entryY=0;entryDx=0;entryDy=0;entryPerimeter=0;exitX=-0.007;exitY=0.8;exitDx=0;exitDy=0;exitPerimeter=0;fillColor=#ffe6cc;strokeColor=#d79b00;" edge="1" parent="1" source="yk_zfGp0-UbUkJ6MIm1z-82" target="yk_zfGp0-UbUkJ6MIm1z-15">
          <mxGeometry width="100" height="100" relative="1" as="geometry">
            <mxPoint x="-820" y="770" as="sourcePoint" />
            <mxPoint x="-720" y="670" as="targetPoint" />
          </mxGeometry>
        </mxCell>
        <mxCell id="yk_zfGp0-UbUkJ6MIm1z-129" value="" style="edgeStyle=entityRelationEdgeStyle;fontSize=12;html=1;endArrow=ERoneToMany;startArrow=ERoneToMany;rounded=0;entryX=1.006;entryY=0.107;entryDx=0;entryDy=0;entryPerimeter=0;exitX=-0.005;exitY=0.68;exitDx=0;exitDy=0;exitPerimeter=0;fillColor=#60a917;strokeColor=#2D7600;" edge="1" parent="1" source="yk_zfGp0-UbUkJ6MIm1z-85" target="yk_zfGp0-UbUkJ6MIm1z-42">
          <mxGeometry width="100" height="100" relative="1" as="geometry">
            <mxPoint x="-810" y="780" as="sourcePoint" />
            <mxPoint x="-710" y="680" as="targetPoint" />
          </mxGeometry>
        </mxCell>
        <mxCell id="yk_zfGp0-UbUkJ6MIm1z-130" value="" style="edgeStyle=entityRelationEdgeStyle;fontSize=12;html=1;endArrow=ERoneToMany;startArrow=ERoneToMany;rounded=0;entryX=1.009;entryY=0.227;entryDx=0;entryDy=0;entryPerimeter=0;exitX=-0.01;exitY=0.347;exitDx=0;exitDy=0;exitPerimeter=0;fillColor=#0050ef;strokeColor=#001DBC;" edge="1" parent="1" source="yk_zfGp0-UbUkJ6MIm1z-101" target="yk_zfGp0-UbUkJ6MIm1z-51">
          <mxGeometry width="100" height="100" relative="1" as="geometry">
            <mxPoint x="-800" y="790" as="sourcePoint" />
            <mxPoint x="-700" y="690" as="targetPoint" />
          </mxGeometry>
        </mxCell>
        <mxCell id="yk_zfGp0-UbUkJ6MIm1z-131" value="" style="edgeStyle=entityRelationEdgeStyle;fontSize=12;html=1;endArrow=ERoneToMany;startArrow=ERoneToMany;rounded=0;entryX=0.999;entryY=0.333;entryDx=0;entryDy=0;entryPerimeter=0;exitX=0.008;exitY=0.04;exitDx=0;exitDy=0;exitPerimeter=0;fillColor=#d80073;strokeColor=#A50040;" edge="1" parent="1" source="yk_zfGp0-UbUkJ6MIm1z-35" target="yk_zfGp0-UbUkJ6MIm1z-63">
          <mxGeometry width="100" height="100" relative="1" as="geometry">
            <mxPoint x="-790" y="800" as="sourcePoint" />
            <mxPoint x="-690" y="700" as="targetPoint" />
          </mxGeometry>
        </mxCell>
      </root>
    </mxGraphModel>
  </diagram>
</mxfile>
